<svg width="265" height="221" viewBox="0 0 265 221" fill="none" xmlns="http://www.w3.org/2000/svg">
<path d="M11.5582 86.947C11.5582 88.9473 8.45108 89.6141 5.86181 90.2809C-6.0371 92.04 3.26739 106.86 6.89842 95.94C10.0055 96.6068 8.3154 95.3412 10.9725 95.1445C13.6296 94.9478 21.9153 94.9484 20.8796 92.9481C19.8439 90.9477 14.1475 91.6145 15.701 90.2809C17.2546 88.9473 21.4482 88.3499 19.0925 86.9816L14.9243 85.28L11.5582 86.947Z" fill="#29FFCC"/>
<path d="M15.533 92.04C15.241 92.04 14.961 91.945 14.7545 91.776C14.5481 91.607 14.4321 91.3777 14.4321 91.1387V81.224C14.4321 80.985 14.5481 80.7557 14.7545 80.5867C14.961 80.4176 15.241 80.3227 15.533 80.3227H16.6339V79.872C16.6339 79.5134 16.8079 79.1695 17.1175 78.916C17.4272 78.6624 17.8473 78.52 18.2852 78.52H25.9916C26.4295 78.52 26.8496 78.6624 27.1592 78.916C27.4689 79.1695 27.6429 79.5134 27.6429 79.872V80.3677C28.2646 80.4716 28.8233 80.7482 29.2245 81.1506C29.6258 81.553 29.8449 82.0565 29.8447 82.576V89.7867C29.8447 90.3843 29.5548 90.9574 29.0386 91.38C28.5225 91.8026 27.8224 92.04 27.0925 92.04H15.533ZM26.542 80.3227V79.872C26.542 79.7525 26.484 79.6379 26.3808 79.5533C26.2776 79.4688 26.1376 79.4213 25.9916 79.4213H18.2852C18.1392 79.4213 17.9992 79.4688 17.896 79.5533C17.7928 79.6379 17.7348 79.7525 17.7348 79.872V80.3227H26.542Z" fill="#F6F6F6"/>
<path d="M258.59 91.169H4.54699C3.4683 91.169 2.4338 91.6732 1.67106 92.5706C0.908311 93.468 0.479797 94.6852 0.479797 95.9543C0.479797 97.2234 0.908311 98.4406 1.67106 99.338C2.4338 100.235 3.4683 100.74 4.54699 100.74H11.7428V215.218C11.7428 216.487 12.1713 217.704 12.9341 218.601C13.6968 219.499 14.7313 220.003 15.81 220.003C16.8887 220.003 17.9232 219.499 18.686 218.601C19.4487 217.704 19.8772 216.487 19.8772 215.218L19.939 100.74H223.834L242.634 215.218C242.634 216.487 243.063 217.704 243.825 218.601C244.588 219.499 245.623 220.003 246.701 220.003C247.78 220.003 248.815 219.499 249.577 218.601C250.34 217.704 250.769 216.487 250.769 215.218L251.952 100.74H258.59C259.669 100.74 260.703 100.235 261.466 99.338C262.229 98.4406 262.657 97.2234 262.657 95.9543C262.657 94.6852 262.229 93.468 261.466 92.5706C260.703 91.6732 259.669 91.169 258.59 91.169Z" fill="#9D9D9D"/>
<path d="M90.6456 162.876V145.207C90.6456 144.426 90.3819 143.677 89.9125 143.125C89.4431 142.572 88.8065 142.262 88.1427 142.262H31.202C30.5382 142.262 29.9016 142.572 29.4323 143.125C28.9629 143.677 28.6992 144.426 28.6992 145.207V162.876H90.6456Z" fill="#CCCCCC"/>
<path d="M90.6456 169.501H28.6992V192.323H90.6456V169.501Z" fill="#CCCCCC"/>
<path d="M28.6992 198.949V216.618C28.6992 217.399 28.9629 218.148 29.4323 218.7C29.9016 219.252 30.5382 219.562 31.202 219.562H88.1427C88.8065 219.562 89.4431 219.252 89.9125 218.7C90.3819 218.148 90.6456 217.399 90.6456 216.618V198.949H28.6992Z" fill="#CCCCCC"/>
<path d="M59.3595 155.514C60.3963 155.514 61.2367 154.525 61.2367 153.305C61.2367 152.085 60.3963 151.096 59.3595 151.096C58.3228 151.096 57.4824 152.085 57.4824 153.305C57.4824 154.525 58.3228 155.514 59.3595 155.514Z" fill="white"/>
<path d="M59.3595 184.961C60.3963 184.961 61.2367 183.973 61.2367 182.753C61.2367 181.533 60.3963 180.544 59.3595 180.544C58.3228 180.544 57.4824 181.533 57.4824 182.753C57.4824 183.973 58.3228 184.961 59.3595 184.961Z" fill="white"/>
<path d="M59.4601 213.786C60.4968 213.786 61.3373 212.797 61.3373 211.577C61.3373 210.357 60.4968 209.368 59.4601 209.368C58.4234 209.368 57.5829 210.357 57.5829 211.577C57.5829 212.797 58.4234 213.786 59.4601 213.786Z" fill="white"/>
<path d="M83.6223 122.116V142.381H40.4712C38.1882 142.472 35.9677 141.494 34.2978 139.66C32.6279 137.826 31.6452 135.287 31.5657 132.601C31.4862 129.915 32.3164 127.302 33.8739 125.336C35.4313 123.37 37.5886 122.212 39.8714 122.116C40.0713 122.108 40.2712 122.108 40.4712 122.116H83.6223Z" fill="#F2F2F2"/>
<path d="M84.6823 142.225C84.6823 142.431 84.6125 142.63 84.4883 142.776C84.364 142.922 84.1956 143.004 84.0199 143.004H39.7027C37.2963 143.005 34.9882 141.881 33.2859 139.88C31.5836 137.879 30.6264 135.164 30.625 132.333C30.6236 129.502 31.5779 126.786 33.2781 124.782C34.9784 122.778 37.2854 121.651 39.6918 121.649H84.0199C84.107 121.648 84.1934 121.668 84.274 121.707C84.3545 121.746 84.4277 121.804 84.4894 121.876C84.5511 121.949 84.6001 122.035 84.6335 122.129C84.6669 122.224 84.6841 122.326 84.6841 122.428C84.6841 122.531 84.6669 122.632 84.6335 122.727C84.6001 122.821 84.5511 122.908 84.4894 122.98C84.4277 123.052 84.3545 123.11 84.274 123.149C84.1934 123.188 84.107 123.208 84.0199 123.207H39.7027C37.6489 123.211 35.6801 124.173 34.2288 125.883C32.7774 127.592 31.9623 129.91 31.9623 132.326C31.9623 134.743 32.7774 137.06 34.2288 138.77C35.6801 140.48 37.6489 141.442 39.7027 141.445H84.0199C84.1956 141.445 84.364 141.528 84.4883 141.674C84.6125 141.82 84.6823 142.018 84.6823 142.225V142.225Z" fill="#3F3D56"/>
<path d="M83.6224 126.793H37.2517C37.2166 126.793 37.1829 126.777 37.158 126.748C37.133 126.719 37.1188 126.679 37.1185 126.638C37.1182 126.597 37.1317 126.557 37.1562 126.528C37.1807 126.498 37.2142 126.481 37.2492 126.481H83.6225C83.6574 126.481 83.6907 126.498 83.7153 126.527C83.7399 126.556 83.7536 126.596 83.7536 126.637C83.7536 126.678 83.7399 126.717 83.7153 126.746C83.6907 126.776 83.6574 126.792 83.6225 126.793H83.6224Z" fill="#CCCCCC"/>
<path d="M83.6224 130.534H37.2517C37.2166 130.534 37.1829 130.518 37.158 130.489C37.133 130.46 37.1188 130.421 37.1185 130.379C37.1182 130.338 37.1317 130.298 37.1562 130.269C37.1807 130.239 37.2142 130.223 37.2492 130.222H83.6225C83.6574 130.222 83.6907 130.239 83.7153 130.268C83.7399 130.297 83.7536 130.337 83.7536 130.378C83.7536 130.419 83.7399 130.458 83.7153 130.488C83.6907 130.517 83.6574 130.533 83.6225 130.534H83.6224Z" fill="#CCCCCC"/>
<path d="M83.6224 134.275H37.2517C37.2166 134.275 37.1829 134.259 37.158 134.23C37.133 134.201 37.1188 134.162 37.1185 134.12C37.1182 134.079 37.1317 134.039 37.1562 134.01C37.1807 133.981 37.2142 133.964 37.2492 133.963H83.6225C83.6574 133.964 83.6907 133.98 83.7153 134.009C83.7399 134.039 83.7536 134.078 83.7536 134.119C83.7536 134.16 83.7399 134.199 83.7153 134.229C83.6907 134.258 83.6574 134.274 83.6225 134.275H83.6224Z" fill="#CCCCCC"/>
<path d="M83.6224 138.016H37.2517C37.2166 138.016 37.1829 138 37.158 137.971C37.133 137.942 37.1188 137.903 37.1185 137.862C37.1182 137.82 37.1317 137.781 37.1562 137.751C37.1807 137.722 37.2142 137.705 37.2492 137.704H83.6225C83.6574 137.705 83.6907 137.721 83.7153 137.75C83.7399 137.78 83.7536 137.819 83.7536 137.86C83.7536 137.901 83.7399 137.941 83.7153 137.97C83.6907 137.999 83.6574 138.016 83.6225 138.016H83.6224Z" fill="#CCCCCC"/>
<path d="M69.8272 114.922H50.167C49.9805 114.922 49.7964 114.972 49.629 115.069L44.6669 117.992C44.5036 118.074 44.3644 118.21 44.2665 118.384C44.1686 118.558 44.1164 118.762 44.1164 118.971C44.1164 119.18 44.1686 119.384 44.2665 119.558C44.3644 119.732 44.5036 119.869 44.6669 119.95L49.629 122.873C49.7964 122.97 49.9805 123.02 50.167 123.02H69.8272C70.0981 123.039 70.3643 122.931 70.5681 122.72C70.7719 122.509 70.8969 122.212 70.9161 121.894V116.048C70.8969 115.73 70.7719 115.433 70.5681 115.222C70.3643 115.011 70.0981 114.904 69.8272 114.922V114.922Z" fill="#3F3D56"/>
<path d="M75.901 116.048V121.894C75.8818 122.212 75.7568 122.509 75.553 122.72C75.3492 122.931 75.083 123.039 74.8121 123.02H70.8952V114.922H74.8121C75.083 114.904 75.3492 115.011 75.553 115.222C75.7568 115.433 75.8818 115.73 75.901 116.048V116.048Z" fill="#33D2AC"/>
<path d="M144.188 90.709L142.113 89.6806L140.689 77.4374H121.726L120.182 89.6306L118.325 90.7231C118.236 90.7754 118.165 90.8614 118.123 90.9673C118.081 91.0731 118.07 91.1926 118.093 91.3064C118.116 91.4201 118.171 91.5215 118.249 91.594C118.327 91.6666 118.423 91.706 118.522 91.706H144.017C144.119 91.706 144.218 91.6646 144.297 91.5887C144.375 91.5129 144.429 91.4073 144.45 91.2899C144.47 91.1724 144.455 91.0504 144.407 90.9446C144.36 90.8387 144.282 90.7554 144.188 90.709V90.709Z" fill="#E6E6E6"/>
<path d="M177.887 79.0664H84.7357C84.2469 79.0651 83.7786 78.8358 83.4334 78.4287C83.0882 78.0217 82.8943 77.4701 82.8943 76.8951V61.4404H179.728V76.8951C179.728 77.4701 179.534 78.0217 179.189 78.4287C178.844 78.8358 178.376 79.0651 177.887 79.0664V79.0664Z" fill="#CCCCCC"/>
<path d="M179.826 68.7447H82.8093V2.61748C82.81 1.92351 83.0446 1.2582 83.4617 0.767497C83.8788 0.276796 84.4443 0.000776505 85.0341 0H177.601C178.191 0.000776492 178.756 0.276797 179.173 0.767497C179.59 1.2582 179.825 1.92351 179.826 2.61748L179.826 68.7447Z" fill="#3F3D56"/>
<path d="M174.031 63.9452H88.6037C88.149 63.9446 87.713 63.7318 87.3915 63.3535C87.0699 62.9752 86.8891 62.4623 86.8885 61.9273V6.81743C86.8891 6.28241 87.0699 5.76947 87.3914 5.39115C87.713 5.01283 88.1489 4.80002 88.6037 4.79941H174.031C174.486 4.80002 174.922 5.01283 175.244 5.39115C175.565 5.76947 175.746 6.28241 175.746 6.81743V61.9273C175.746 62.4623 175.565 62.9752 175.244 63.3535C174.922 63.7318 174.486 63.9446 174.031 63.9452Z" fill="#171717"/>
<path d="M151.531 83.3906C152.082 82.7912 152.739 82.3414 153.454 82.0728C154.17 81.8043 154.926 81.7235 155.671 81.8362C156.416 81.9489 157.13 82.2524 157.764 82.7252C158.399 83.198 158.937 83.8286 159.342 84.5727L170.897 82.1557L173.858 90.0591L157.499 93.2029C156.392 93.9198 155.099 94.1339 153.866 93.8045C152.634 93.4751 151.546 92.6252 150.811 91.4157C150.075 90.2062 149.742 88.7212 149.875 87.2421C150.008 85.7631 150.597 84.3927 151.531 83.3906V83.3906Z" fill="#FFB6B6"/>
<path d="M162.229 93.4822L174.276 93.3055L175.801 93.2812L200.309 92.9179C200.309 92.9179 206.965 85.4473 212.76 77.7559L211.948 70.8433C211.156 64.0593 208.295 57.845 203.9 53.357C195.599 59.8824 190.786 72.7988 190.786 72.7988L175.589 77.0752L174.069 77.503L164.627 80.1577L162.229 93.4822Z" fill="#33D2AC"/>
<path d="M223.896 135.97H201.41C201.41 137.103 176.83 138.023 176.83 138.023C176.287 138.504 175.793 139.055 175.357 139.666C174.044 141.508 173.327 143.835 173.332 146.238V147.881C173.332 150.604 174.252 153.215 175.889 155.14C177.525 157.066 179.744 158.148 182.059 158.149H223.896C226.21 158.146 228.429 157.064 230.065 155.139C231.701 153.214 232.621 150.603 232.623 147.881V146.238C232.62 143.516 231.7 140.906 230.064 138.981C228.428 137.057 226.21 135.974 223.896 135.97V135.97Z" fill="#E4E4E4"/>
<path d="M207.544 157.741H198.468V219.379H207.544V157.741Z" fill="#E4E4E4"/>
<path d="M172.635 219.004C172.635 220.158 186.389 219.45 203.355 219.45C220.321 219.45 234.075 220.158 234.075 219.004C234.075 217.85 220.321 208.7 203.355 208.7C186.389 208.7 172.635 217.85 172.635 219.004Z" fill="#E4E4E4"/>
<path d="M166.538 211.961L159.783 211.961L156.57 181.306L166.539 181.306L166.538 211.961Z" fill="#FFB6B6"/>
<path d="M168.261 219.665L146.48 219.664V219.34C146.48 216.695 147.374 214.158 148.963 212.287C150.553 210.417 152.71 209.366 154.958 209.366H154.958L168.261 209.366L168.261 219.665Z" fill="#2F2E41"/>
<path d="M146.574 211.961L139.819 211.961L136.605 181.306L146.574 181.306L146.574 211.961Z" fill="#FFB6B6"/>
<path d="M148.296 219.665L126.515 219.664V219.34C126.516 216.695 127.409 214.158 128.999 212.287C130.588 210.417 132.745 209.366 134.993 209.366H134.994L148.297 209.366L148.296 219.665Z" fill="#2F2E41"/>
<path d="M207.083 35.4777C213.57 35.4777 218.828 29.2909 218.828 21.6591C218.828 14.0273 213.57 7.84052 207.083 7.84052C200.596 7.84052 195.338 14.0273 195.338 21.6591C195.338 29.2909 200.596 35.4777 207.083 35.4777Z" fill="#FFB6B6"/>
<path d="M226.092 116.339C226.092 116.339 230.033 140.856 215.039 143.978C200.045 147.1 178.4 149.295 178.4 149.295L168.68 202.65L155.622 201.278C155.622 201.278 157.359 137.051 161.63 132.026C165.901 127.001 192.894 111.955 192.894 111.955L226.092 116.339Z" fill="#2F2E41"/>
<path d="M196.808 106.063L190.25 113.804C190.25 113.804 142.899 122.777 141.073 135.644C138.315 155.071 135.057 197.315 135.057 197.315L149.294 196.059L154.876 148.039L177.655 141.942L203.57 125.326L196.808 106.063Z" fill="#2F2E41"/>
<path d="M218.385 13.4104C217.226 10.8368 215.752 5.70741 213.412 4.75611C212.113 4.24912 210.77 3.91247 209.407 3.75227L205.43 5.5522L207.594 3.57128C207.173 3.54174 206.752 3.51759 206.331 3.49883L203.647 4.71325L205.02 3.45681C202.518 3.42659 199.935 3.73268 197.997 5.52471C196.344 7.05242 194.707 12.8397 194.442 15.2928C194.159 17.6395 194.258 20.0282 194.734 22.3314L195.413 23.0917C195.651 22.4504 195.83 21.7809 195.947 21.0948C196.19 19.8128 196.658 18.6046 197.321 17.5471C197.983 16.4897 198.826 15.6062 199.794 14.9531L199.831 14.9285C200.971 14.1737 202.354 14.2085 203.662 14.2639L209.87 14.5267C211.364 14.5899 212.972 14.7011 214.137 15.8035C214.877 16.6167 215.459 17.6085 215.842 18.7111C216.421 20.0851 217.552 25.2677 217.552 25.2677C217.552 25.2677 218.192 24.2894 218.498 25.0176C218.99 23.1178 219.289 21.1563 219.389 19.1739C219.487 17.1827 219.141 15.1959 218.385 13.4104V13.4104Z" fill="#2F2E41"/>
<path d="M259.464 27.7276C258.714 27.7856 257.985 28.0362 257.327 28.4618C256.669 28.8873 256.099 29.4774 255.655 30.1905C255.212 30.9036 254.907 31.7223 254.762 32.589C254.617 33.4558 254.635 34.3494 254.815 35.2069L245.371 43.4039L248.205 51.3716L261.404 39.5756C262.609 39.124 263.63 38.1683 264.276 36.8896C264.921 35.6109 265.146 34.098 264.907 32.6375C264.668 31.1771 263.981 29.8707 262.978 28.9657C261.975 28.0608 260.724 27.6202 259.464 27.7276V27.7276Z" fill="#FFB6B6"/>
<path d="M257.944 44.4616L234.267 75.4002C234.267 75.4002 222.944 71.1355 214.187 66.512L210.253 52.296C209.339 48.9981 208.95 45.5305 209.103 42.0666C221.242 38.266 235.362 52.4074 235.362 52.4074L253.085 36.0738L257.944 44.4616Z" fill="#33D2AC"/>
<path d="M202.696 118.624C198.472 116.907 194.104 115.132 189.392 114.465L189.19 114.437L189.246 114.206C194.123 94.0585 192.906 81.1702 190.516 61.8101C190.007 57.6342 190.661 53.3768 192.378 49.6735C194.095 45.9701 196.784 43.0193 200.043 41.2616L200.072 41.2462L213.528 40.2402L213.559 40.238L223.345 43.6244C224.753 44.1152 225.985 45.1355 226.853 46.529C227.721 47.9225 228.177 49.6123 228.15 51.3396C228.044 57.7065 228.269 64.815 228.507 72.3407C229.041 89.2241 229.593 106.682 226.46 118.01L226.443 118.069L226.401 118.108C223.521 120.868 219.912 122.36 216.196 122.325C211.804 122.325 207.321 120.504 202.696 118.624Z" fill="#33D2AC"/>
<path d="M257.535 219.96H10.4337C10.3387 219.96 10.2476 219.933 10.1805 219.884C10.1133 219.835 10.0756 219.769 10.0756 219.7C10.0756 219.631 10.1133 219.565 10.1805 219.516C10.2476 219.467 10.3387 219.44 10.4337 219.44H257.535C257.63 219.44 257.721 219.467 257.788 219.516C257.855 219.565 257.893 219.631 257.893 219.7C257.893 219.769 257.855 219.835 257.788 219.884C257.721 219.933 257.63 219.96 257.535 219.96Z" fill="#CCCCCC"/>
</svg>
