<svg width="500" height="400" viewBox="0 0 268 221" fill="none" xmlns="http://www.w3.org/2000/svg">
<g id="illustration">
<path id="spill-vector" d="M14.5582 86.947C14.5582 88.9473 11.4511 89.6141 8.86181 90.2809C-3.0371 92.04 6.26739 106.86 9.89842 95.94C13.0055 96.6068 11.3154 95.3412 13.9725 95.1445C16.6296 94.9478 24.9153 94.9484 23.8796 92.9481C22.8439 90.9477 17.1475 91.6145 18.701 90.2809C20.2546 88.9473 24.4482 88.3499 22.0925 86.9816L17.9243 85.28L14.5582 86.947Z" fill="#29FFCC"/>
<path id="spill-drop" d="M5.79505 101.832C5.78349 101.791 5.76975 101.751 5.75391 101.713L5.75589 101.718C5.69812 101.548 5.23363 100.414 5.15609 100.259L2.99942 95L0.78775 100.388C0.712577 100.543 0.300313 101.548 0.24334 101.718L0.220789 101.781C0.0736967 102.234 -0.00132219 102.719 1.76347e-05 103.209C1.76347e-05 104.214 0.316066 105.179 0.878637 105.89C1.44121 106.601 2.20422 107 2.99981 107C3.79541 107 4.55841 106.601 5.12099 105.89C5.68356 105.179 5.9996 104.214 5.9996 103.209V103.206L6 103.155C6 102.678 5.92483 102.223 5.78833 101.808L5.79505 101.831V101.832ZM3.001 106.009C2.61725 106.01 2.2401 105.883 1.90667 105.643C1.57324 105.403 1.29503 105.058 1.09943 104.64C0.903828 104.223 0.79758 103.749 0.791144 103.264C0.784708 102.779 0.878306 102.3 1.06272 101.875L1.05679 101.89C1.02781 102.084 1.01324 102.282 1.01327 102.48V102.481C1.01369 103.368 1.29294 104.22 1.78968 104.847C2.28642 105.475 2.96002 105.828 3.66252 105.828C3.70723 105.828 3.7551 105.828 3.79941 105.825C3.54654 105.948 3.27783 106.011 3.00693 106.009H2.99783H2.99823H3.001Z" fill="#29FFCC"/>
<path id="cup" d="M18.533 92.04C18.241 92.04 17.961 91.945 17.7545 91.776C17.5481 91.607 17.4321 91.3777 17.4321 91.1387V81.224C17.4321 80.985 17.5481 80.7557 17.7545 80.5867C17.961 80.4176 18.241 80.3227 18.533 80.3227H19.6339V79.872C19.6339 79.5134 19.8079 79.1695 20.1175 78.916C20.4272 78.6624 20.8473 78.52 21.2852 78.52H28.9916C29.4295 78.52 29.8496 78.6624 30.1592 78.916C30.4689 79.1695 30.6429 79.5134 30.6429 79.872V80.3677C31.2646 80.4716 31.8233 80.7482 32.2245 81.1506C32.6258 81.553 32.8449 82.0565 32.8447 82.576V89.7867C32.8447 90.3843 32.5548 90.9574 32.0386 91.38C31.5225 91.8026 30.8224 92.04 30.0925 92.04H18.533ZM29.542 80.3227V79.872C29.542 79.7525 29.484 79.6379 29.3808 79.5533C29.2776 79.4688 29.1376 79.4213 28.9916 79.4213H21.2852C21.1392 79.4213 20.9992 79.4688 20.896 79.5533C20.7928 79.6379 20.7348 79.7525 20.7348 79.872V80.3227H29.542Z" fill="#F6F6F6"/>
<g id="table-pc">
<path id="Vector" d="M261.59 91.169H7.54699C6.4683 91.169 5.4338 91.6732 4.67106 92.5706C3.90831 93.468 3.4798 94.6852 3.4798 95.9543C3.4798 97.2234 3.90831 98.4406 4.67106 99.338C5.4338 100.235 6.4683 100.74 7.54699 100.74H14.7428V215.218C14.7428 216.487 15.1713 217.704 15.9341 218.601C16.6968 219.499 17.7313 220.003 18.81 220.003C19.8887 220.003 20.9232 219.499 21.686 218.601C22.4487 217.704 22.8772 216.487 22.8772 215.218L22.939 100.74H226.834L245.634 215.218C245.634 216.487 246.063 217.704 246.825 218.601C247.588 219.499 248.623 220.003 249.701 220.003C250.78 220.003 251.815 219.499 252.577 218.601C253.34 217.704 253.769 216.487 253.769 215.218L254.952 100.74H261.59C262.669 100.74 263.703 100.235 264.466 99.338C265.229 98.4406 265.657 97.2234 265.657 95.9543C265.657 94.6852 265.229 93.468 264.466 92.5706C263.703 91.6732 262.669 91.169 261.59 91.169Z" fill="#9D9D9D"/>
<path id="Vector_2" d="M93.6456 162.876V145.207C93.6456 144.426 93.3819 143.677 92.9125 143.125C92.4431 142.572 91.8065 142.262 91.1427 142.262H34.202C33.5382 142.262 32.9016 142.572 32.4323 143.125C31.9629 143.677 31.6992 144.426 31.6992 145.207V162.876H93.6456Z" fill="#CCCCCC"/>
<path id="Vector_3" d="M93.6456 169.501H31.6992V192.323H93.6456V169.501Z" fill="#CCCCCC"/>
<path id="Vector_4" d="M31.6992 198.949V216.618C31.6992 217.399 31.9629 218.148 32.4323 218.7C32.9016 219.252 33.5382 219.562 34.202 219.562H91.1427C91.8065 219.562 92.4431 219.252 92.9125 218.7C93.3819 218.148 93.6456 217.399 93.6456 216.618V198.949H31.6992Z" fill="#CCCCCC"/>
<path id="Vector_5" d="M62.3595 155.514C63.3963 155.514 64.2367 154.525 64.2367 153.305C64.2367 152.085 63.3963 151.096 62.3595 151.096C61.3228 151.096 60.4824 152.085 60.4824 153.305C60.4824 154.525 61.3228 155.514 62.3595 155.514Z" fill="white"/>
<path id="Vector_6" d="M62.3595 184.961C63.3963 184.961 64.2367 183.973 64.2367 182.753C64.2367 181.533 63.3963 180.544 62.3595 180.544C61.3228 180.544 60.4824 181.533 60.4824 182.753C60.4824 183.973 61.3228 184.961 62.3595 184.961Z" fill="white"/>
<path id="Vector_7" d="M62.4601 213.786C63.4968 213.786 64.3373 212.797 64.3373 211.577C64.3373 210.357 63.4968 209.368 62.4601 209.368C61.4234 209.368 60.5829 210.357 60.5829 211.577C60.5829 212.797 61.4234 213.786 62.4601 213.786Z" fill="white"/>
<path id="Vector_8" d="M86.6223 122.116V142.381H43.4712C41.1882 142.472 38.9677 141.494 37.2978 139.66C35.6279 137.826 34.6452 135.287 34.5657 132.601C34.4862 129.915 35.3164 127.302 36.8739 125.336C38.4313 123.37 40.5886 122.212 42.8714 122.116C43.0713 122.108 43.2712 122.108 43.4712 122.116H86.6223Z" fill="#F2F2F2"/>
<path id="Vector_9" d="M87.6823 142.225C87.6823 142.431 87.6125 142.63 87.4883 142.776C87.364 142.922 87.1956 143.004 87.0199 143.004H42.7027C40.2963 143.005 37.9882 141.881 36.2859 139.88C34.5836 137.879 33.6264 135.164 33.625 132.333C33.6236 129.502 34.5779 126.786 36.2781 124.782C37.9784 122.778 40.2854 121.651 42.6918 121.649H87.0199C87.107 121.648 87.1934 121.668 87.274 121.707C87.3545 121.746 87.4277 121.804 87.4894 121.876C87.5511 121.949 87.6001 122.035 87.6335 122.129C87.6669 122.224 87.6841 122.326 87.6841 122.428C87.6841 122.531 87.6669 122.632 87.6335 122.727C87.6001 122.821 87.5511 122.908 87.4894 122.98C87.4277 123.052 87.3545 123.11 87.274 123.149C87.1934 123.188 87.107 123.208 87.0199 123.207H42.7027C40.6489 123.211 38.6801 124.173 37.2288 125.883C35.7774 127.592 34.9623 129.91 34.9623 132.326C34.9623 134.743 35.7774 137.06 37.2288 138.77C38.6801 140.48 40.6489 141.442 42.7027 141.445H87.0199C87.1956 141.445 87.364 141.528 87.4883 141.674C87.6125 141.82 87.6823 142.018 87.6823 142.225V142.225Z" fill="#3F3D56"/>
<path id="Vector_10" d="M86.6224 126.793H40.2517C40.2166 126.793 40.1829 126.777 40.158 126.748C40.133 126.719 40.1188 126.679 40.1185 126.638C40.1182 126.597 40.1317 126.557 40.1562 126.528C40.1807 126.498 40.2142 126.481 40.2492 126.481H86.6225C86.6574 126.481 86.6907 126.498 86.7153 126.527C86.7399 126.556 86.7536 126.596 86.7536 126.637C86.7536 126.678 86.7399 126.717 86.7153 126.746C86.6907 126.776 86.6574 126.792 86.6225 126.793H86.6224Z" fill="#CCCCCC"/>
<path id="Vector_11" d="M86.6224 130.534H40.2517C40.2166 130.534 40.1829 130.518 40.158 130.489C40.133 130.46 40.1188 130.421 40.1185 130.379C40.1182 130.338 40.1317 130.298 40.1562 130.269C40.1807 130.239 40.2142 130.223 40.2492 130.222H86.6225C86.6574 130.222 86.6907 130.239 86.7153 130.268C86.7399 130.297 86.7536 130.337 86.7536 130.378C86.7536 130.419 86.7399 130.458 86.7153 130.488C86.6907 130.517 86.6574 130.533 86.6225 130.534H86.6224Z" fill="#CCCCCC"/>
<path id="Vector_12" d="M86.6224 134.275H40.2517C40.2166 134.275 40.1829 134.259 40.158 134.23C40.133 134.201 40.1188 134.162 40.1185 134.12C40.1182 134.079 40.1317 134.039 40.1562 134.01C40.1807 133.981 40.2142 133.964 40.2492 133.963H86.6225C86.6574 133.964 86.6907 133.98 86.7153 134.009C86.7399 134.039 86.7536 134.078 86.7536 134.119C86.7536 134.16 86.7399 134.199 86.7153 134.229C86.6907 134.258 86.6574 134.274 86.6225 134.275H86.6224Z" fill="#CCCCCC"/>
<path id="Vector_13" d="M86.6224 138.016H40.2517C40.2166 138.016 40.1829 138 40.158 137.971C40.133 137.942 40.1188 137.903 40.1185 137.862C40.1182 137.82 40.1317 137.781 40.1562 137.751C40.1807 137.722 40.2142 137.705 40.2492 137.704H86.6225C86.6574 137.705 86.6907 137.721 86.7153 137.75C86.7399 137.78 86.7536 137.819 86.7536 137.86C86.7536 137.901 86.7399 137.941 86.7153 137.97C86.6907 137.999 86.6574 138.016 86.6225 138.016H86.6224Z" fill="#CCCCCC"/>
<path id="Vector_14" d="M72.8272 114.922H53.167C52.9805 114.922 52.7964 114.972 52.629 115.069L47.6669 117.992C47.5036 118.074 47.3644 118.21 47.2665 118.384C47.1686 118.558 47.1164 118.762 47.1164 118.971C47.1164 119.18 47.1686 119.384 47.2665 119.558C47.3644 119.732 47.5036 119.869 47.6669 119.95L52.629 122.873C52.7964 122.97 52.9805 123.02 53.167 123.02H72.8272C73.0981 123.039 73.3643 122.931 73.5681 122.72C73.7719 122.509 73.8969 122.212 73.9161 121.894V116.048C73.8969 115.73 73.7719 115.433 73.5681 115.222C73.3643 115.011 73.0981 114.904 72.8272 114.922V114.922Z" fill="#3F3D56"/>
<path id="Vector_15" d="M78.901 116.048V121.894C78.8818 122.212 78.7568 122.509 78.553 122.72C78.3492 122.931 78.083 123.039 77.8121 123.02H73.8952V114.922H77.8121C78.083 114.904 78.3492 115.011 78.553 115.222C78.7568 115.433 78.8818 115.73 78.901 116.048V116.048Z" fill="#33D2AC"/>
<path id="Vector_16" d="M147.188 90.709L145.113 89.6806L143.689 77.4374H124.726L123.182 89.6306L121.325 90.7231C121.236 90.7754 121.165 90.8614 121.123 90.9673C121.081 91.0731 121.07 91.1926 121.093 91.3064C121.116 91.4201 121.171 91.5215 121.249 91.594C121.327 91.6666 121.423 91.706 121.522 91.706H147.017C147.119 91.706 147.218 91.6646 147.297 91.5887C147.375 91.5129 147.429 91.4073 147.45 91.2899C147.47 91.1724 147.455 91.0504 147.407 90.9446C147.36 90.8387 147.282 90.7554 147.188 90.709V90.709Z" fill="#E6E6E6"/>
<path id="Vector_17" d="M180.887 79.0664H87.7357C87.2469 79.0651 86.7786 78.8358 86.4334 78.4287C86.0882 78.0217 85.8943 77.4701 85.8943 76.8951V61.4404H182.728V76.8951C182.728 77.4701 182.534 78.0217 182.189 78.4287C181.844 78.8358 181.376 79.0651 180.887 79.0664V79.0664Z" fill="#CCCCCC"/>
<path id="Vector_18" d="M182.826 68.7447H85.8093V2.61748C85.81 1.92351 86.0446 1.2582 86.4617 0.767497C86.8788 0.276796 87.4443 0.000776505 88.0341 0H180.601C181.191 0.000776492 181.756 0.276797 182.173 0.767497C182.59 1.2582 182.825 1.92351 182.826 2.61748L182.826 68.7447Z" fill="#3F3D56"/>
<path id="Vector_19" d="M177.031 63.9452H91.6037C91.149 63.9446 90.713 63.7318 90.3915 63.3535C90.0699 62.9752 89.8891 62.4623 89.8885 61.9273V6.81743C89.8891 6.28241 90.0699 5.76947 90.3914 5.39115C90.713 5.01283 91.1489 4.80002 91.6037 4.79941H177.031C177.486 4.80002 177.922 5.01283 178.244 5.39115C178.565 5.76947 178.746 6.28241 178.746 6.81743V61.9273C178.746 62.4623 178.565 62.9752 178.244 63.3535C177.922 63.7318 177.486 63.9446 177.031 63.9452Z" fill="#171717"/>
</g>
<g id="character">
<path id="Vector_20" d="M154.531 83.3906C155.082 82.7912 155.739 82.3414 156.454 82.0728C157.17 81.8043 157.926 81.7235 158.671 81.8362C159.416 81.9489 160.13 82.2524 160.764 82.7252C161.399 83.198 161.937 83.8286 162.342 84.5727L173.897 82.1557L176.858 90.0591L160.499 93.2029C159.392 93.9198 158.099 94.1339 156.866 93.8045C155.634 93.4751 154.546 92.6252 153.811 91.4157C153.075 90.2062 152.742 88.7212 152.875 87.2421C153.008 85.7631 153.597 84.3927 154.531 83.3906V83.3906Z" fill="#FFB6B6"/>
<path id="Vector_21" d="M165.229 93.4822L177.276 93.3055L178.801 93.2812L203.309 92.9179C203.309 92.9179 209.965 85.4473 215.76 77.7559L214.948 70.8433C214.156 64.0593 211.295 57.845 206.9 53.357C198.599 59.8824 193.786 72.7988 193.786 72.7988L178.589 77.0752L177.069 77.503L167.627 80.1577L165.229 93.4822Z" fill="#33D2AC"/>
<path id="Vector_22" d="M226.896 135.97H204.41C204.41 137.103 179.83 138.023 179.83 138.023C179.287 138.504 178.793 139.055 178.357 139.666C177.044 141.508 176.327 143.835 176.332 146.238V147.881C176.332 150.604 177.252 153.215 178.889 155.14C180.525 157.066 182.744 158.148 185.059 158.149H226.896C229.21 158.146 231.429 157.064 233.065 155.139C234.701 153.214 235.621 150.603 235.623 147.881V146.238C235.62 143.516 234.7 140.906 233.064 138.981C231.428 137.057 229.21 135.974 226.896 135.97V135.97Z" fill="#E4E4E4"/>
<path id="Vector_23" d="M210.544 157.741H201.468V219.379H210.544V157.741Z" fill="#E4E4E4"/>
<path id="Vector_24" d="M175.635 219.004C175.635 220.158 189.389 219.45 206.355 219.45C223.321 219.45 237.075 220.158 237.075 219.004C237.075 217.85 223.321 208.7 206.355 208.7C189.389 208.7 175.635 217.85 175.635 219.004Z" fill="#E4E4E4"/>
<path id="Vector_25" d="M169.538 211.961L162.783 211.961L159.57 181.306L169.539 181.306L169.538 211.961Z" fill="#FFB6B6"/>
<path id="Vector_26" d="M171.261 219.665L149.48 219.664V219.34C149.48 216.695 150.374 214.158 151.963 212.287C153.553 210.417 155.71 209.366 157.958 209.366H157.958L171.261 209.366L171.261 219.665Z" fill="#2F2E41"/>
<path id="Vector_27" d="M149.574 211.961L142.819 211.961L139.605 181.306L149.574 181.306L149.574 211.961Z" fill="#FFB6B6"/>
<path id="Vector_28" d="M151.296 219.665L129.515 219.664V219.34C129.516 216.695 130.409 214.158 131.999 212.287C133.588 210.417 135.745 209.366 137.993 209.366H137.994L151.297 209.366L151.296 219.665Z" fill="#2F2E41"/>
<path id="Vector_29" d="M210.083 35.4777C216.57 35.4777 221.828 29.2909 221.828 21.6591C221.828 14.0273 216.57 7.84052 210.083 7.84052C203.596 7.84052 198.338 14.0273 198.338 21.6591C198.338 29.2909 203.596 35.4777 210.083 35.4777Z" fill="#FFB6B6"/>
<path id="Vector_30" d="M229.092 116.339C229.092 116.339 233.033 140.856 218.039 143.978C203.045 147.1 181.4 149.295 181.4 149.295L171.68 202.65L158.622 201.278C158.622 201.278 160.359 137.051 164.63 132.026C168.901 127.001 195.894 111.955 195.894 111.955L229.092 116.339Z" fill="#2F2E41"/>
<path id="Vector_31" d="M199.808 106.063L193.25 113.804C193.25 113.804 145.899 122.777 144.073 135.644C141.315 155.071 138.057 197.315 138.057 197.315L152.294 196.059L157.876 148.039L180.655 141.942L206.57 125.326L199.808 106.063Z" fill="#2F2E41"/>
<path id="Vector_32" d="M221.385 13.4104C220.226 10.8368 218.752 5.70741 216.412 4.75611C215.113 4.24912 213.77 3.91247 212.407 3.75227L208.43 5.5522L210.594 3.57128C210.173 3.54174 209.752 3.51759 209.331 3.49883L206.647 4.71325L208.02 3.45681C205.518 3.42659 202.935 3.73268 200.997 5.52471C199.344 7.05242 197.707 12.8397 197.442 15.2928C197.159 17.6395 197.258 20.0282 197.734 22.3314L198.413 23.0917C198.651 22.4504 198.83 21.7809 198.947 21.0948C199.19 19.8128 199.658 18.6046 200.321 17.5471C200.983 16.4897 201.826 15.6062 202.794 14.9531L202.831 14.9285C203.971 14.1737 205.354 14.2085 206.662 14.2639L212.87 14.5267C214.364 14.5899 215.972 14.7011 217.137 15.8035C217.877 16.6167 218.459 17.6085 218.842 18.7111C219.421 20.0851 220.552 25.2677 220.552 25.2677C220.552 25.2677 221.192 24.2894 221.498 25.0176C221.99 23.1178 222.289 21.1563 222.389 19.1739C222.487 17.1827 222.141 15.1959 221.385 13.4104V13.4104Z" fill="#2F2E41"/>
<path id="Vector_33" d="M262.464 27.7276C261.714 27.7856 260.985 28.0362 260.327 28.4618C259.669 28.8873 259.099 29.4774 258.655 30.1905C258.212 30.9036 257.907 31.7223 257.762 32.589C257.617 33.4558 257.635 34.3494 257.815 35.2069L248.371 43.4039L251.205 51.3716L264.404 39.5756C265.609 39.124 266.63 38.1683 267.276 36.8896C267.921 35.6109 268.146 34.098 267.907 32.6375C267.668 31.1771 266.981 29.8707 265.978 28.9657C264.975 28.0608 263.724 27.6202 262.464 27.7276V27.7276Z" fill="#FFB6B6"/>
<path id="Vector_34" d="M260.944 44.4616L237.267 75.4002C237.267 75.4002 225.944 71.1355 217.187 66.512L213.253 52.296C212.339 48.9981 211.95 45.5305 212.103 42.0666C224.242 38.266 238.362 52.4074 238.362 52.4074L256.085 36.0738L260.944 44.4616Z" fill="#33D2AC"/>
<path id="Vector_35" d="M205.696 118.624C201.472 116.907 197.104 115.132 192.392 114.465L192.19 114.437L192.246 114.206C197.123 94.0585 195.906 81.1702 193.516 61.8101C193.007 57.6342 193.661 53.3768 195.378 49.6735C197.095 45.9701 199.784 43.0193 203.043 41.2616L203.072 41.2462L216.528 40.2402L216.559 40.238L226.345 43.6244C227.753 44.1152 228.985 45.1355 229.853 46.529C230.721 47.9225 231.177 49.6123 231.15 51.3396C231.044 57.7065 231.269 64.815 231.507 72.3407C232.041 89.2241 232.593 106.682 229.46 118.01L229.443 118.069L229.401 118.108C226.521 120.868 222.912 122.36 219.196 122.325C214.804 122.325 210.321 120.504 205.696 118.624Z" fill="#33D2AC"/>
</g>
<path id="Vector_36" d="M260.535 219.96H13.4337C13.3387 219.96 13.2476 219.933 13.1805 219.884C13.1133 219.835 13.0756 219.769 13.0756 219.7C13.0756 219.631 13.1133 219.565 13.1805 219.516C13.2476 219.467 13.3387 219.44 13.4337 219.44H260.535C260.63 219.44 260.721 219.467 260.788 219.516C260.855 219.565 260.893 219.631 260.893 219.7C260.893 219.769 260.855 219.835 260.788 219.884C260.721 219.933 260.63 219.96 260.535 219.96Z" fill="#CCCCCC"/>
</g>
</svg>
