<svg viewBox="0 0 294 224" fill="none" xmlns="http://www.w3.org/2000/svg">
<g id="illustration">
<path id="spill-vector" d="M43.5142 88.5267C43.5142 90.5634 40.4189 91.2423 37.8395 91.9212C25.9859 93.7122 35.255 108.801 38.8722 97.6831C41.9675 98.362 40.2838 97.0734 42.9308 96.8731C45.5778 96.6728 53.8319 96.6735 52.8001 94.6368C51.7684 92.6001 46.0937 93.279 47.6413 91.9212C49.189 90.5634 53.3666 89.9551 51.0198 88.562L46.8675 86.8294L43.5142 88.5267Z" fill="#29FFCC"/>
<path id="spill-vector_2" d="M23.165 218C19.165 218 17.0146 219 14.9062 219.295C4.06887 223.5 9.51466 223.5 20.2117 223.5C24.0147 223.5 22.0147 223.5 24.5689 223.5C27.2041 223.304 32.0147 223.5 38.5689 223.5C43.2227 223.5 42.399 221.079 40.665 220.25C40.665 220.25 40.0147 219.59 37.0147 219.295L35.5146 219C35.5146 219 34.1469 218.725 32.0147 218.5C29.8824 218.275 28.5146 218 27.5146 218C26.5146 218 25.665 218 25.665 218H23.165Z" fill="#29FFCC"/>
<path id="cup" d="M47.4739 93.7122C47.183 93.7122 46.904 93.6155 46.6984 93.4434C46.4927 93.2713 46.3771 93.0379 46.3771 92.7945V82.6997C46.3771 82.4563 46.4927 82.2229 46.6984 82.0508C46.904 81.8787 47.183 81.782 47.4739 81.782H48.5706V81.3231C48.5706 80.9581 48.7439 80.6079 49.0524 80.3498C49.3609 80.0916 49.7793 79.9466 50.2156 79.9466H57.8926C58.3289 79.9466 58.7474 80.0916 59.0559 80.3498C59.3644 80.6079 59.5377 80.9581 59.5377 81.3231V81.8279C60.157 81.9337 60.7136 82.2152 61.1133 82.625C61.513 83.0347 61.7313 83.5474 61.7311 84.0763V91.4179C61.7311 92.0264 61.4423 92.61 60.9281 93.0402C60.4139 93.4705 59.7165 93.7122 58.9894 93.7122H47.4739ZM58.441 81.782V81.3231C58.441 81.2014 58.3832 81.0847 58.2804 80.9987C58.1776 80.9126 58.0381 80.8643 57.8926 80.8643H50.2156C50.0702 80.8643 49.9307 80.9126 49.8279 80.9987C49.7251 81.0847 49.6673 81.2014 49.6673 81.3231V81.782H58.441Z" fill="#F6F6F6"/>
<g id="table-pc">
<path id="Vector" d="M289.606 92.8254H36.5297C35.4551 92.8254 34.4245 93.3388 33.6647 94.2525C32.9048 95.1662 32.478 96.4055 32.478 97.6976C32.478 98.9898 32.9048 100.229 33.6647 101.143C34.4245 102.057 35.4551 102.57 36.5297 102.57H43.6981V219.128C43.6981 220.42 44.125 221.659 44.8849 222.573C45.6447 223.487 46.6753 224 47.7498 224C48.8244 224 49.855 223.487 50.6148 222.573C51.3747 221.659 51.8016 220.42 51.8016 219.128L51.8631 102.57H254.983L273.711 219.128C273.711 220.42 274.138 221.659 274.898 222.573C275.657 223.487 276.688 224 277.763 224C278.837 224 279.868 223.487 280.628 222.573C281.387 221.659 281.814 220.42 281.814 219.128L282.993 102.57H289.606C290.681 102.57 291.711 102.057 292.471 101.143C293.231 100.229 293.658 98.9898 293.658 97.6976C293.658 96.4055 293.231 95.1662 292.471 94.2525C291.711 93.3388 290.681 92.8254 289.606 92.8254Z" fill="#9D9D9D"/>
<path id="Vector_2" d="M122.301 165.835V147.845C122.301 147.05 122.038 146.287 121.57 145.725C121.103 145.163 120.469 144.847 119.807 144.847H63.0833C62.4221 144.847 61.7879 145.163 61.3203 145.725C60.8527 146.287 60.59 147.05 60.59 147.845V165.835H122.301Z" fill="#CCCCCC"/>
<path id="Vector_3" d="M122.301 172.581H60.59V195.818H122.301V172.581Z" fill="#CCCCCC"/>
<path id="Vector_4" d="M60.59 202.564V220.553C60.59 221.349 60.8527 222.111 61.3203 222.673C61.7879 223.236 62.4221 223.552 63.0833 223.552H119.807C120.469 223.552 121.103 223.236 121.57 222.673C122.038 222.111 122.301 221.349 122.301 220.553V202.564H60.59Z" fill="#CCCCCC"/>
<path id="Vector_5" d="M91.1336 158.339C92.1664 158.339 93.0037 157.332 93.0037 156.09C93.0037 154.848 92.1664 153.842 91.1336 153.842C90.1008 153.842 89.2636 154.848 89.2636 156.09C89.2636 157.332 90.1008 158.339 91.1336 158.339Z" fill="white"/>
<path id="Vector_6" d="M91.1336 188.322C92.1664 188.322 93.0037 187.315 93.0037 186.073C93.0037 184.831 92.1664 183.824 91.1336 183.824C90.1008 183.824 89.2636 184.831 89.2636 186.073C89.2636 187.315 90.1008 188.322 91.1336 188.322Z" fill="white"/>
<path id="Vector_7" d="M91.2339 217.67C92.2666 217.67 93.1039 216.663 93.1039 215.421C93.1039 214.179 92.2666 213.172 91.2339 213.172C90.2011 213.172 89.3638 214.179 89.3638 215.421C89.3638 216.663 90.2011 217.67 91.2339 217.67Z" fill="white"/>
<path id="Vector_8" d="M115.304 124.335V144.967H72.3172C70.0429 145.061 67.8309 144.064 66.1673 142.197C64.5038 140.33 63.5248 137.745 63.4456 135.01C63.3664 132.275 64.1935 129.615 65.745 127.613C67.2966 125.611 69.4456 124.432 71.7197 124.335C71.9188 124.327 72.118 124.327 72.3172 124.335H115.304Z" fill="#F2F2F2"/>
<path id="Vector_9" d="M116.36 144.809C116.36 145.019 116.29 145.221 116.167 145.37C116.043 145.519 115.875 145.602 115.7 145.602H71.5516C69.1543 145.603 66.855 144.459 65.1592 142.421C63.4633 140.384 62.5099 137.62 62.5084 134.737C62.507 131.854 63.4577 129.089 65.1515 127.049C66.8452 125.009 69.1434 123.862 71.5407 123.859H115.7C115.787 123.859 115.873 123.879 115.953 123.919C116.033 123.958 116.106 124.017 116.168 124.091C116.229 124.164 116.278 124.252 116.311 124.348C116.345 124.445 116.362 124.548 116.362 124.652C116.362 124.757 116.345 124.86 116.311 124.957C116.278 125.053 116.229 125.141 116.168 125.214C116.106 125.288 116.033 125.346 115.953 125.386C115.873 125.426 115.787 125.446 115.7 125.446H71.5516C69.5056 125.449 67.5443 126.429 66.0985 128.17C64.6527 129.91 63.8406 132.27 63.8406 134.731C63.8406 137.191 64.6527 139.551 66.0985 141.291C67.5443 143.032 69.5056 144.012 71.5516 144.015H115.7C115.875 144.015 116.043 144.099 116.167 144.248C116.29 144.396 116.36 144.598 116.36 144.809V144.809Z" fill="#3F3D56"/>
<path id="Vector_10" d="M115.304 129.096H69.1099C69.075 129.097 69.0414 129.08 69.0166 129.051C68.9917 129.021 68.9776 128.981 68.9772 128.939C68.9769 128.897 68.9904 128.857 69.0148 128.827C69.0393 128.797 69.0726 128.779 69.1075 128.779H115.304C115.339 128.779 115.372 128.796 115.397 128.826C115.421 128.856 115.435 128.896 115.435 128.938C115.435 128.979 115.421 129.02 115.397 129.049C115.372 129.079 115.339 129.096 115.304 129.096H115.304Z" fill="#CCCCCC"/>
<path id="Vector_11" d="M115.304 132.905H69.1099C69.075 132.906 69.0414 132.889 69.0166 132.86C68.9917 132.83 68.9776 132.79 68.9772 132.748C68.9769 132.706 68.9904 132.666 69.0148 132.636C69.0393 132.606 69.0726 132.589 69.1075 132.588H115.304C115.339 132.588 115.372 132.605 115.397 132.635C115.421 132.665 115.435 132.705 115.435 132.747C115.435 132.789 115.421 132.829 115.397 132.858C115.372 132.888 115.339 132.905 115.304 132.905H115.304Z" fill="#CCCCCC"/>
<path id="Vector_12" d="M115.304 136.714H69.1099C69.075 136.715 69.0414 136.698 69.0166 136.669C68.9917 136.639 68.9776 136.599 68.9772 136.557C68.9769 136.515 68.9904 136.475 69.0148 136.445C69.0393 136.415 69.0726 136.398 69.1075 136.397H115.304C115.339 136.397 115.372 136.414 115.397 136.444C115.421 136.474 115.435 136.514 115.435 136.556C115.435 136.598 115.421 136.638 115.397 136.667C115.372 136.697 115.339 136.714 115.304 136.714H115.304Z" fill="#CCCCCC"/>
<path id="Vector_13" d="M115.304 140.523H69.1099C69.075 140.524 69.0414 140.507 69.0166 140.478C68.9917 140.448 68.9776 140.408 68.9772 140.366C68.9769 140.324 68.9904 140.284 69.0148 140.254C69.0393 140.224 69.0726 140.207 69.1075 140.206H115.304C115.339 140.207 115.372 140.223 115.397 140.253C115.421 140.283 115.435 140.323 115.435 140.365C115.435 140.407 115.421 140.447 115.397 140.476C115.372 140.506 115.339 140.523 115.304 140.523H115.304Z" fill="#CCCCCC"/>
<path id="Vector_14" d="M101.561 117.01H81.9762C81.7903 117.01 81.6069 117.061 81.4402 117.16L76.497 120.136C76.3343 120.219 76.1956 120.358 76.0981 120.535C76.0006 120.712 75.9485 120.92 75.9485 121.133C75.9485 121.345 76.0006 121.553 76.0981 121.73C76.1956 121.908 76.3343 122.046 76.497 122.13L81.4402 125.105C81.6069 125.204 81.7903 125.255 81.9762 125.255H101.561C101.831 125.274 102.097 125.164 102.3 124.949C102.503 124.735 102.627 124.433 102.646 124.108V118.157C102.627 117.833 102.503 117.53 102.3 117.316C102.097 117.101 101.831 116.991 101.561 117.01V117.01Z" fill="#3F3D56"/>
<path id="Vector_15" d="M107.612 118.157V124.108C107.593 124.433 107.469 124.735 107.266 124.95C107.062 125.164 106.797 125.274 106.527 125.255H102.625V117.01H106.527C106.797 116.991 107.062 117.101 107.266 117.316C107.469 117.53 107.593 117.833 107.612 118.157V118.157Z" fill="#33D2AC"/>
<path id="Vector_16" d="M175.64 92.357L173.572 91.31L172.153 78.8444H153.262L151.725 91.259L149.875 92.3714C149.786 92.4246 149.715 92.5122 149.673 92.62C149.631 92.7278 149.621 92.8495 149.644 92.9653C149.666 93.0811 149.721 93.1843 149.799 93.2582C149.876 93.332 149.972 93.3722 150.071 93.3722H175.469C175.571 93.3722 175.669 93.33 175.748 93.2528C175.826 93.1755 175.88 93.068 175.9 92.9485C175.92 92.8289 175.905 92.7047 175.858 92.5969C175.81 92.4891 175.733 92.4043 175.64 92.357V92.357Z" fill="#E6E6E6"/>
<path id="Vector_17" d="M209.21 80.503H116.413C115.926 80.5016 115.46 80.2681 115.116 79.8537C114.772 79.4392 114.579 78.8777 114.579 78.2922V62.5567H211.044V78.2922C211.044 78.8777 210.851 79.4392 210.507 79.8537C210.163 80.2681 209.697 80.5016 209.21 80.503V80.503Z" fill="#CCCCCC"/>
<path id="Vector_18" d="M211.141 69.9936H114.494V2.66503C114.495 1.95846 114.729 1.28106 115.144 0.781441C115.56 0.281825 116.123 0.000790613 116.711 0H208.925C209.513 0.0007906 210.076 0.281826 210.492 0.781441C210.907 1.28106 211.141 1.95846 211.141 2.66503L211.141 69.9936Z" fill="#3F3D56"/>
<path id="Vector_19" d="M205.369 65.1069H120.267C119.814 65.1063 119.379 64.8897 119.059 64.5045C118.739 64.1193 118.558 63.5971 118.558 63.0524V6.94128C118.558 6.39654 118.739 5.87428 119.059 5.48909C119.379 5.10389 119.814 4.88722 120.267 4.8866H205.369C205.822 4.88722 206.256 5.10389 206.577 5.48909C206.897 5.87428 207.077 6.39654 207.078 6.94128V63.0524C207.077 63.5971 206.897 64.1193 206.577 64.5045C206.256 64.8897 205.822 65.1063 205.369 65.1069Z" fill="#171717"/>
</g>
<g id="character">
<path id="Vector_20" d="M182.954 84.9057C183.504 84.2954 184.158 83.8374 184.87 83.564C185.583 83.2906 186.337 83.2083 187.079 83.3231C187.82 83.4378 188.532 83.7468 189.164 84.2282C189.796 84.7096 190.332 85.3517 190.735 86.1093L202.247 83.6483L205.196 91.6954L188.9 94.8962C187.796 95.6262 186.509 95.8442 185.281 95.5088C184.053 95.1734 182.97 94.308 182.237 93.0766C181.504 91.8451 181.172 90.3332 181.304 88.8272C181.437 87.3213 182.024 85.926 182.954 84.9057V84.9057Z" fill="#FFB6B6"/>
<path id="Vector_21" d="M193.612 95.1806L205.612 95.0007L207.132 94.976L231.547 94.6061C231.547 94.6061 238.177 86.9998 243.951 79.1686L243.142 72.1304C242.352 65.2231 239.503 58.896 235.124 54.3264C226.855 60.9704 222.06 74.1215 222.06 74.1215L206.921 78.4756L205.407 78.9111L196 81.614L193.612 95.1806Z" fill="#33D2AC"/>
<path id="Vector_22" d="M255.044 138.44H232.644C232.644 139.594 208.157 140.531 208.157 140.531C207.617 141.02 207.124 141.581 206.689 142.204C205.382 144.079 204.668 146.448 204.672 148.895V150.568C204.673 153.34 205.589 155.999 207.219 157.959C208.85 159.919 211.06 161.021 213.366 161.022H255.044C257.349 161.02 259.56 159.917 261.19 157.957C262.82 155.997 263.736 153.34 263.738 150.568V148.895C263.735 146.123 262.818 143.466 261.188 141.507C259.558 139.547 257.349 138.444 255.044 138.44V138.44Z" fill="#E4E4E4"/>
<path id="Vector_23" d="M238.755 160.607H229.713V223.365H238.755V160.607Z" fill="#E4E4E4"/>
<path id="Vector_24" d="M203.978 222.983C203.978 224.158 217.68 223.437 234.581 223.437C251.483 223.437 265.184 224.158 265.184 222.983C265.184 221.808 251.483 212.492 234.581 212.492C217.68 212.492 203.978 221.808 203.978 222.983Z" fill="#E4E4E4"/>
<path id="Vector_25" d="M197.905 215.812L191.175 215.812L187.974 184.6L197.906 184.6L197.905 215.812Z" fill="#FFB6B6"/>
<path id="Vector_26" d="M199.621 223.656L177.923 223.655V223.325C177.923 220.632 178.813 218.049 180.397 216.144C181.98 214.24 184.128 213.17 186.368 213.169H186.369L199.621 213.17L199.621 223.656Z" fill="#2F2E41"/>
<path id="Vector_27" d="M178.016 215.812L171.287 215.812L168.085 184.6L178.017 184.6L178.016 215.812Z" fill="#FFB6B6"/>
<g id="Arm">
<path id="Vector_28" d="M288.28 31.5794C287.534 31.6385 286.807 31.8936 286.152 32.3269C285.496 32.7601 284.928 33.361 284.486 34.087C284.045 34.813 283.741 35.6467 283.597 36.5291C283.452 37.4116 283.47 38.3215 283.65 39.1946L277.064 48.3791L279.351 50.9246L290.213 43.6427C291.413 43.1829 292.431 42.2098 293.074 40.9079C293.717 39.6059 293.941 38.0655 293.703 36.5785C293.464 35.0916 292.781 33.7614 291.781 32.84C290.782 31.9186 289.536 31.4701 288.28 31.5794Z" fill="#FFB6B6"/>
<path id="Vector 5" d="M286.03 48.363L280.053 41.7449L257.638 56.5083L268.596 69.7445L286.03 48.363Z" fill="#33D2AC"/>
</g>
<path id="Vector_29" d="M179.732 223.656L158.034 223.655V223.325C158.034 220.632 158.924 218.049 160.508 216.144C162.092 214.24 164.24 213.17 166.479 213.169H166.48L179.732 213.17L179.732 223.656Z" fill="#2F2E41"/>
<path id="Vector_30" d="M237.958 39.3392C244.42 39.3392 249.659 33.04 249.659 25.2695C249.659 17.4991 244.42 11.1999 237.958 11.1999C231.496 11.1999 226.258 17.4991 226.258 25.2695C226.258 33.04 231.496 39.3392 237.958 39.3392Z" fill="#FFB6B6"/>
<path id="Vector_31" d="M257.232 118.453C257.232 118.453 261.158 143.415 246.22 146.594C231.283 149.773 209.721 152.007 209.721 152.007L200.039 206.332L187.03 204.935C187.03 204.935 188.76 139.541 193.015 134.424C197.269 129.308 224.16 113.989 224.16 113.989L257.232 118.453Z" fill="#2F2E41"/>
<path id="Vector_32" d="M228.059 107.99L221.526 115.871C221.526 115.871 174.355 125.008 172.536 138.109C169.788 157.888 166.543 200.9 166.543 200.9L180.726 199.621L186.287 150.728L208.979 144.521L234.795 127.603L228.059 107.99Z" fill="#2F2E41"/>
<path id="Vector 6" d="M268.596 69.7445L269.094 51.5193L255.148 44.7994V61.3752L268.596 69.7445Z" fill="#33D2AC"/>
<path id="Vector_33" d="M249.271 16.2455C248.116 13.625 246.648 8.40248 244.317 7.43389C243.022 6.91769 241.684 6.57493 240.327 6.41182L236.365 8.24445L238.521 6.22754C238.102 6.19746 237.682 6.17287 237.262 6.15377L234.589 7.39026L235.957 6.11099C233.464 6.08022 230.891 6.39187 228.96 8.21646C227.314 9.77192 225.682 15.6643 225.419 18.162C225.137 20.5514 225.235 22.9835 225.71 25.3285L226.387 26.1026C226.623 25.4496 226.801 24.768 226.918 24.0694C227.16 22.7641 227.627 21.5339 228.287 20.4573C228.947 19.3807 229.786 18.4812 230.751 17.8161L230.788 17.7911C231.923 17.0226 233.301 17.058 234.603 17.1144L240.788 17.382C242.276 17.4464 243.878 17.5596 245.039 18.682C245.776 19.51 246.356 20.5198 246.738 21.6424C247.314 23.0414 248.441 28.3182 248.441 28.3182C248.441 28.3182 249.078 27.3221 249.384 28.0635C249.873 26.1292 250.171 24.1321 250.271 22.1136C250.368 20.0862 250.024 18.0634 249.271 16.2455Z" fill="#2F2E41"/>
<path id="Vector 4" d="M233.231 31.5633C231.737 33.5996 233.729 39.7086 233.231 43.2722C232.733 46.8358 241.699 47.854 243.193 43.2722C244.688 38.6904 243.691 33.5996 245.186 31.5633C246.68 29.527 234.726 29.5269 233.231 31.5633Z" fill="#FFB6B6"/>
<path id="Vector_34" d="M233.925 120.779C229.717 119.031 225.365 117.224 220.672 116.545L220.47 116.516L220.526 116.281C225.384 95.7674 224.172 82.6449 221.791 62.9331C221.284 58.6813 221.935 54.3466 223.646 50.5759C225.356 46.8053 228.035 43.8009 231.282 42.0113L231.311 41.9956L244.716 40.9713L244.746 40.9691L254.495 44.417C255.898 44.9167 257.125 45.9556 257.99 47.3744C258.855 48.7932 259.308 50.5137 259.282 52.2723C259.176 58.7549 259.4 65.9926 259.638 73.655C260.17 90.8452 260.72 108.621 257.598 120.154L257.582 120.214L257.54 120.254C254.67 123.064 251.075 124.583 247.374 124.548C242.998 124.548 238.532 122.693 233.925 120.779Z" fill="#33D2AC"/>
</g>
<path id="Vector_35" d="M288.582 224H0.417631C0.306869 224 0.200644 223.947 0.122323 223.854C0.0440023 223.76 0 223.633 0 223.5C0 223.367 0.0440023 223.24 0.122323 223.146C0.200644 223.053 0.306869 223 0.417631 223H288.582C288.693 223 288.799 223.053 288.878 223.146C288.956 223.24 289 223.367 289 223.5C289 223.633 288.956 223.76 288.878 223.854C288.799 223.947 288.693 224 288.582 224Z" fill="#CCCCCC"/>
<path id="spill-drop" d="M32.9622 99.342C32.9602 99.3386 32.958 99.3352 32.9553 99.3319L32.9557 99.3324C32.9461 99.3179 32.869 99.2217 32.8561 99.2086L32.498 98.7624L32.1308 99.2195C32.1183 99.2327 32.0499 99.3179 32.0404 99.3324L32.0367 99.3377C32.0122 99.3762 31.9998 99.4173 32 99.4589C32 99.5442 32.0525 99.626 32.1459 99.6863C32.2393 99.7466 32.366 99.7805 32.4981 99.7805C32.6302 99.7805 32.7568 99.7466 32.8502 99.6863C32.9437 99.626 32.9961 99.5442 32.9961 99.4589V99.4586L32.9962 99.4543C32.9962 99.4138 32.9837 99.3752 32.9611 99.34L32.9622 99.342ZM32.4983 99.6965C32.4345 99.6965 32.3719 99.6858 32.3166 99.6654C32.2612 99.6451 32.215 99.6157 32.1825 99.5803C32.1501 99.5449 32.1324 99.5047 32.1314 99.4635C32.1303 99.4224 32.1458 99.3818 32.1764 99.3457L32.1755 99.3469C32.1706 99.3634 32.1682 99.3802 32.1682 99.397C32.1683 99.4723 32.2147 99.5446 32.2971 99.5979C32.3796 99.6511 32.4915 99.6811 32.6081 99.6811C32.6155 99.6811 32.6235 99.6811 32.6308 99.6809C32.5888 99.6913 32.5442 99.6966 32.4992 99.6965H32.4977H32.4983Z" fill="#29FFCC"/>
</g>
</svg>
