<svg width="21" height="21" viewBox="0 0 21 21" fill="none" xmlns="http://www.w3.org/2000/svg">
<path d="M10.7667 2.13526C10.4517 2.13526 10.1442 2.25026 9.90734 2.48714L8.14921 4.26401C8.05421 4.31526 7.97421 4.38901 7.91546 4.47901L2.36796 10.0259C2.14042 10.254 2.01263 10.5631 2.01263 10.8853C2.01263 11.2075 2.14042 11.5165 2.36796 11.7446L9.90734 19.284C10.1361 19.5103 10.4449 19.6373 10.7667 19.6373C11.0885 19.6373 11.3973 19.5103 11.6261 19.284L19.1655 11.7446C19.393 11.5165 19.5208 11.2075 19.5208 10.8853C19.5208 10.5631 19.393 10.254 19.1655 10.0259L11.6255 2.48651C11.5127 2.37398 11.3788 2.28498 11.2313 2.22468C11.0839 2.16438 10.926 2.13399 10.7667 2.13526V2.13526ZM10.7667 3.40464L18.2473 10.8853L10.7667 18.3659L3.28609 10.8853L8.46234 5.70964L9.55609 6.80339C9.52802 6.91172 9.51477 7.02337 9.51671 7.13526C9.51671 7.59651 9.76796 7.99214 10.1417 8.20964V13.5609C9.76796 13.7784 9.51671 14.1734 9.51671 14.6353C9.51671 14.9668 9.64841 15.2847 9.88283 15.5191C10.1173 15.7536 10.4352 15.8853 10.7667 15.8853C11.0982 15.8853 11.4162 15.7536 11.6506 15.5191C11.885 15.2847 12.0167 14.9668 12.0167 14.6353C12.0167 14.174 11.7655 13.7784 11.3917 13.5609V8.65901L13.3061 10.5728C13.2583 10.7575 13.2534 10.9508 13.2919 11.1377C13.3303 11.3246 13.4111 11.5002 13.528 11.6511C13.6449 11.802 13.7947 11.924 13.9661 12.008C14.1375 12.0919 14.3259 12.1354 14.5167 12.1353C14.8481 12.1351 15.1659 12.0033 15.4002 11.7689C15.6345 11.5345 15.7661 11.2167 15.7661 10.8853C15.7664 10.6944 15.7229 10.506 15.639 10.3345C15.5551 10.163 15.433 10.013 15.2822 9.89608C15.1313 9.77913 14.9556 9.6983 14.7687 9.6598C14.5817 9.62131 14.3884 9.62617 14.2036 9.67401L11.9773 7.44776C12.0252 7.26301 12.03 7.06976 11.9916 6.88284C11.9531 6.69591 11.8723 6.52029 11.7555 6.36943C11.6386 6.21857 11.4887 6.09649 11.3173 6.01257C11.1459 5.92864 10.9576 5.88509 10.7667 5.88526C10.655 5.88338 10.5436 5.89662 10.4355 5.92464L9.34171 4.83089L10.7667 3.40464Z" fill="black"/>
</svg>
