<svg width="21" height="21" viewBox="0 0 21 21" fill="none" xmlns="http://www.w3.org/2000/svg">
<path d="M17.4334 10.0519C17.2124 10.0519 17.0004 10.1397 16.8441 10.296C16.6879 10.4523 16.6001 10.6642 16.6001 10.8853V15.8853C16.6001 16.1063 16.5123 16.3182 16.356 16.4745C16.1997 16.6308 15.9877 16.7186 15.7667 16.7186H5.76672C5.54571 16.7186 5.33375 16.6308 5.17747 16.4745C5.02119 16.3182 4.93339 16.1063 4.93339 15.8853V5.88525C4.93339 5.66424 5.02119 5.45228 5.17747 5.296C5.33375 5.13972 5.54571 5.05192 5.76672 5.05192H10.7667C10.9877 5.05192 11.1997 4.96412 11.356 4.80784C11.5123 4.65156 11.6001 4.4396 11.6001 4.21859C11.6001 3.99757 11.5123 3.78561 11.356 3.62933C11.1997 3.47305 10.9877 3.38525 10.7667 3.38525H5.76672C5.10368 3.38525 4.4678 3.64865 3.99896 4.11749C3.53012 4.58633 3.26672 5.22221 3.26672 5.88525V15.8853C3.26672 16.5483 3.53012 17.1842 3.99896 17.653C4.4678 18.1219 5.10368 18.3853 5.76672 18.3853H15.7667C16.4298 18.3853 17.0656 18.1219 17.5345 17.653C18.0033 17.1842 18.2667 16.5483 18.2667 15.8853V10.8853C18.2667 10.6642 18.1789 10.4523 18.0226 10.296C17.8664 10.1397 17.6544 10.0519 17.4334 10.0519Z" fill="black"/>
<path d="M14.1001 5.05192H15.4168L10.1751 10.2853C10.097 10.3627 10.035 10.4549 9.99268 10.5564C9.95037 10.658 9.92859 10.7669 9.92859 10.8769C9.92859 10.9869 9.95037 11.0959 9.99268 11.1974C10.035 11.299 10.097 11.3911 10.1751 11.4686C10.2526 11.5467 10.3447 11.6087 10.4463 11.651C10.5478 11.6933 10.6567 11.7151 10.7668 11.7151C10.8768 11.7151 10.9857 11.6933 11.0872 11.651C11.1888 11.6087 11.281 11.5467 11.3584 11.4686L16.6001 6.23525V7.55192C16.6001 7.77293 16.6879 7.9849 16.8442 8.14118C17.0004 8.29746 17.2124 8.38525 17.4334 8.38525C17.6544 8.38525 17.8664 8.29746 18.0227 8.14118C18.179 7.9849 18.2668 7.77293 18.2668 7.55192V4.21859C18.2668 3.99757 18.179 3.78561 18.0227 3.62933C17.8664 3.47305 17.6544 3.38525 17.4334 3.38525H14.1001C13.8791 3.38525 13.6671 3.47305 13.5108 3.62933C13.3546 3.78561 13.2668 3.99757 13.2668 4.21859C13.2668 4.4396 13.3546 4.65156 13.5108 4.80784C13.6671 4.96412 13.8791 5.05192 14.1001 5.05192Z" fill="black"/>
<path d="M14.1001 5.05192H15.4168L10.1751 10.2853C10.097 10.3627 10.035 10.4549 9.99268 10.5564C9.95037 10.658 9.92859 10.7669 9.92859 10.8769C9.92859 10.9869 9.95037 11.0959 9.99268 11.1974C10.035 11.299 10.097 11.3911 10.1751 11.4686C10.2526 11.5467 10.3447 11.6087 10.4463 11.651C10.5478 11.6933 10.6567 11.7151 10.7668 11.7151C10.8768 11.7151 10.9857 11.6933 11.0872 11.651C11.1888 11.6087 11.281 11.5467 11.3584 11.4686L16.6001 6.23525V7.55192C16.6001 7.77293 16.6879 7.9849 16.8442 8.14118C17.0004 8.29746 17.2124 8.38525 17.4334 8.38525C17.6544 8.38525 17.8664 8.29746 18.0227 8.14118C18.179 7.9849 18.2668 7.77293 18.2668 7.55192V4.21859C18.2668 3.99757 18.179 3.78561 18.0227 3.62933C17.8664 3.47305 17.6544 3.38525 17.4334 3.38525H14.1001C13.8791 3.38525 13.6671 3.47305 13.5108 3.62933C13.3546 3.78561 13.2668 3.99757 13.2668 4.21859C13.2668 4.4396 13.3546 4.65156 13.5108 4.80784C13.6671 4.96412 13.8791 5.05192 14.1001 5.05192Z" stroke="black"/>
</svg>
