<svg width="30" height="15" viewBox="0 0 30 15" fill="none" xmlns="http://www.w3.org/2000/svg">
<path fill-rule="evenodd" clip-rule="evenodd" d="M0.338946 0.314691C0.446116 0.214939 0.573429 0.135795 0.713594 0.0817952C0.853758 0.0277951 1.00402 0 1.15577 0C1.30753 0 1.45779 0.0277951 1.59795 0.0817952C1.73812 0.135795 1.86543 0.214939 1.9726 0.314691L15.0003 12.4123L28.028 0.314691C28.1353 0.2151 28.2626 0.136099 28.4028 0.0822007C28.5429 0.0283021 28.6931 0.000560822 28.8448 0.000560822C28.9965 0.000560822 29.1467 0.0283021 29.2869 0.0822007C29.427 0.136099 29.5544 0.2151 29.6617 0.314691C29.7689 0.414283 29.854 0.532515 29.9121 0.662638C29.9701 0.792761 30 0.932226 30 1.07307C30 1.21391 29.9701 1.35338 29.9121 1.4835C29.854 1.61362 29.7689 1.73186 29.6617 1.83145L15.8171 14.6853C15.71 14.7851 15.5826 14.8642 15.4425 14.9182C15.3023 14.9722 15.1521 15 15.0003 15C14.8485 15 14.6983 14.9722 14.5581 14.9182C14.418 14.8642 14.2906 14.7851 14.1835 14.6853L0.338946 1.83145C0.231505 1.73195 0.146262 1.61374 0.0881004 1.48361C0.0299385 1.35347 0 1.21396 0 1.07307C0 0.932175 0.0299385 0.792666 0.0881004 0.662531C0.146262 0.532396 0.231505 0.414192 0.338946 0.314691V0.314691Z" fill="#29FFCC"/>
</svg>
