<svg width="2000" height="2000" viewBox="0 0 857 511" fill="none" xmlns="http://www.w3.org/2000/svg">
<g clip-path="url(#clip0_53_2)">
<path d="M472.672 501.338C479.073 501.332 485.369 502.959 490.966 506.065H454.426C460.006 502.96 466.287 501.333 472.672 501.338V501.338Z" fill="#E6E6E6"/>
<path d="M401.767 496.611C412.459 496.599 422.891 499.902 431.628 506.065H371.947C380.672 499.909 391.089 496.606 401.767 496.611V496.611Z" fill="#E6E6E6"/>
<path d="M0.123169 436.772C2.79306 388.36 41.6894 348.889 90.0615 345.581C112.359 344.014 134.513 350.202 152.771 363.098C171.03 375.993 184.269 394.803 190.248 416.341C191.422 416.299 192.595 416.252 193.779 416.252C214.715 416.256 235.086 423.038 251.846 435.584C268.606 448.13 280.853 465.766 286.756 485.852C300.628 479.757 316.131 478.434 330.836 482.092C345.54 485.75 358.617 494.181 368.017 506.065H65.7443C28.6082 506.065 -1.45977 475.306 0.0545654 438.201C0.0739521 437.725 0.0968356 437.249 0.123169 436.772Z" fill="#E6E6E6"/>
<path d="M7.97363 505.065H856.974V507.065H7.97363V505.065Z" fill="#3F3D56"/>
<path d="M573.63 180.239C573.63 180.239 612.164 168.235 606.249 187.984C600.333 207.733 567.876 197.757 567.876 197.757L573.63 180.239Z" fill="#FFB8B8"/>
<path d="M426.327 106.114C426.327 106.114 446.076 79.1272 465.262 107.143C484.487 135.213 502.36 158.258 502.36 158.258L550.106 173.825L577.728 176.276L570.119 200.834L489.806 189.183C489.806 189.183 400.391 136.069 426.327 106.114Z" fill="#2F2E41"/>
<path d="M514.474 255.565C514.474 255.565 544.474 276.565 542.474 295.565C540.474 314.565 527.474 366.565 527.474 366.565L500.474 362.565C500.474 362.565 497.474 322.565 507.474 307.565L459.474 280.565L514.474 255.565Z" fill="#FFB8B8"/>
<path d="M447.974 305.065C447.974 305.065 449.974 342.065 444.974 357.065C439.974 372.065 434.974 428.065 434.974 428.065H406.974C406.974 428.065 393.974 379.065 409.974 357.065C409.974 357.065 414.974 328.065 400.974 314.065L447.974 305.065Z" fill="#FFB8B8"/>
<path d="M454.474 202.565C454.474 202.565 519.474 243.565 519.474 256.565L467.474 299.565L449.474 279.565L451.474 309.565L395.474 320.565C395.474 320.565 375.474 244.565 376.474 241.565C377.474 238.565 380.474 194.565 380.474 194.565L454.474 202.565Z" fill="#2F2E41"/>
<path d="M500.474 357.565L529.474 363.565L524.321 384.748C521.785 395.173 521.496 406.019 523.474 416.565V416.565C523.474 416.565 493.474 424.565 493.474 420.565C493.474 416.565 500.474 400.565 498.474 389.565C496.474 378.565 500.474 357.565 500.474 357.565Z" fill="#6C63FF"/>
<path d="M485.474 432.565C486.474 428.565 494.782 410.43 495.128 413.497C495.474 416.565 511.474 421.565 517.474 415.565C517.474 415.565 525.474 408.565 528.474 415.565C531.474 422.565 537.474 434.565 537.474 434.565C537.474 434.565 564.474 447.565 560.474 454.565C559.665 455.981 557.423 456.578 554.363 456.631C554.435 456.816 554.472 457.012 554.474 457.211V457.92C554.474 458.356 554.3 458.775 553.992 459.083C553.683 459.392 553.264 459.565 552.828 459.565H552.119C551.683 459.565 551.264 459.392 550.956 459.083C550.647 458.775 550.474 458.356 550.474 457.92V457.211C550.475 456.956 550.537 456.704 550.653 456.477C549.836 456.406 548.987 456.311 548.115 456.196C548.346 456.484 548.472 456.842 548.474 457.211V457.92C548.474 458.356 548.3 458.775 547.992 459.083C547.683 459.392 547.264 459.565 546.828 459.565H546.119C545.683 459.565 545.264 459.392 544.956 459.083C544.647 458.775 544.474 458.356 544.474 457.92V457.211C544.474 456.918 544.554 456.63 544.703 456.378C544.853 456.126 545.068 455.919 545.325 455.778C543.023 455.394 540.621 454.905 538.232 454.364C538.389 454.619 538.472 454.912 538.474 455.211V455.92C538.474 456.356 538.3 456.775 537.992 457.083C537.683 457.392 537.264 457.565 536.828 457.565H536.119C535.683 457.565 535.264 457.392 534.956 457.083C534.647 456.775 534.474 456.356 534.474 455.92V455.211C534.474 454.893 534.567 454.582 534.74 454.315C534.914 454.048 535.161 453.838 535.452 453.709C533.66 453.272 531.904 452.817 530.233 452.366C530.389 452.62 530.472 452.912 530.474 453.211V453.92C530.474 454.356 530.3 454.775 529.992 455.083C529.683 455.392 529.264 455.565 528.828 455.565H528.119C527.683 455.565 527.264 455.392 526.956 455.083C526.647 454.775 526.474 454.356 526.474 453.92V453.211C526.474 452.861 526.587 452.52 526.795 452.239C527.004 451.958 527.296 451.75 527.631 451.647C521.758 449.993 517.474 448.565 517.474 448.565C517.474 448.565 512.498 446.755 506.474 444.309V444.92C506.474 445.356 506.3 445.775 505.992 446.083C505.683 446.392 505.264 446.565 504.828 446.565H504.119C503.683 446.565 503.264 446.392 502.956 446.083C502.647 445.775 502.474 445.356 502.474 444.92V444.211C502.474 443.961 502.532 443.715 502.642 443.492C502.753 443.268 502.913 443.072 503.11 442.92C501.901 442.411 500.681 441.889 499.474 441.357V441.92C499.474 442.356 499.3 442.775 498.992 443.083C498.683 443.392 498.264 443.565 497.828 443.565H497.119C496.683 443.565 496.264 443.392 495.956 443.083C495.647 442.775 495.474 442.356 495.474 441.92V441.211C495.474 440.946 495.538 440.685 495.661 440.451C495.783 440.216 495.961 440.015 496.178 439.864C494.873 439.255 493.616 438.647 492.458 438.051C492.463 438.105 492.474 438.156 492.474 438.211V438.92C492.474 439.356 492.3 439.775 491.992 440.083C491.683 440.392 491.264 440.565 490.828 440.565H490.119C489.683 440.565 489.264 440.392 488.956 440.083C488.647 439.775 488.474 439.356 488.474 438.92V438.211C488.474 437.832 488.605 437.464 488.845 437.17C489.085 436.876 489.419 436.674 489.791 436.598C486.995 434.975 485.231 433.534 485.474 432.565Z" fill="#2F2E41"/>
<path d="M404.974 423.565L436.654 421.565C436.654 421.565 434.734 454.565 438.574 465.565C442.414 476.565 440.494 480.565 440.494 480.565L412.654 482.565L404.974 423.565Z" fill="#6C63FF"/>
<path d="M404.584 496.5C404.728 492.379 409.072 472.91 410.05 475.838C411.028 478.766 427.719 480.32 432.336 473.201C432.336 473.201 438.701 464.687 443.094 470.908C447.488 477.128 455.858 487.614 455.858 487.614C455.858 487.614 484.975 494.698 482.523 502.378C482.027 503.932 479.959 504.983 476.977 505.672C477.086 505.838 477.163 506.023 477.206 506.217L477.354 506.91C477.445 507.337 477.362 507.782 477.125 508.148C476.888 508.515 476.514 508.772 476.087 508.863L475.394 509.01C474.968 509.101 474.522 509.019 474.156 508.782C473.79 508.544 473.533 508.171 473.442 507.744L473.294 507.051C473.242 506.801 473.25 506.542 473.317 506.296C472.502 506.396 471.652 506.481 470.775 506.55C471.061 506.784 471.26 507.107 471.338 507.468L471.486 508.161C471.577 508.588 471.494 509.033 471.257 509.4C471.019 509.766 470.646 510.023 470.219 510.114L469.526 510.261C469.099 510.352 468.654 510.27 468.288 510.033C467.922 509.795 467.665 509.422 467.574 508.995L467.426 508.302C467.366 508.015 467.383 507.717 467.477 507.44C467.571 507.162 467.738 506.915 467.96 506.723C465.628 506.827 463.177 506.85 460.728 506.819C460.934 507.035 461.077 507.304 461.141 507.597L461.289 508.29C461.38 508.717 461.297 509.162 461.06 509.529C460.822 509.895 460.449 510.152 460.022 510.243L459.329 510.39C458.902 510.481 458.457 510.399 458.091 510.162C457.724 509.924 457.467 509.551 457.376 509.124L457.229 508.431C457.163 508.12 457.188 507.796 457.303 507.499C457.417 507.202 457.615 506.945 457.872 506.758C456.029 506.705 454.217 506.625 452.488 506.532C452.694 506.749 452.836 507.017 452.9 507.309L453.047 508.002C453.138 508.429 453.056 508.874 452.819 509.241C452.581 509.607 452.208 509.864 451.781 509.955L451.088 510.102C450.661 510.193 450.216 510.111 449.849 509.874C449.483 509.636 449.226 509.263 449.135 508.836L448.988 508.143C448.915 507.8 448.955 507.444 449.1 507.125C449.245 506.807 449.488 506.543 449.793 506.372C443.705 505.979 439.217 505.476 439.217 505.476C439.217 505.476 433.973 504.743 427.571 503.607L427.698 504.204C427.789 504.631 427.707 505.076 427.47 505.442C427.232 505.809 426.859 506.066 426.432 506.157L425.739 506.304C425.312 506.395 424.867 506.313 424.5 506.076C424.134 505.838 423.877 505.465 423.786 505.038L423.639 504.345C423.587 504.101 423.592 503.848 423.654 503.606C423.715 503.364 423.831 503.14 423.992 502.949C422.703 502.704 421.401 502.448 420.109 502.179L420.227 502.729C420.318 503.156 420.235 503.602 419.998 503.968C419.76 504.334 419.387 504.591 418.96 504.682L418.267 504.83C417.841 504.921 417.395 504.838 417.029 504.601C416.663 504.363 416.406 503.99 416.315 503.563L416.167 502.87C416.112 502.611 416.12 502.343 416.191 502.088C416.262 501.833 416.394 501.599 416.575 501.406C415.172 501.083 413.816 500.75 412.558 500.409C412.574 500.46 412.596 500.508 412.607 500.562L412.755 501.255C412.846 501.682 412.764 502.127 412.526 502.493C412.289 502.86 411.916 503.116 411.489 503.207L410.796 503.355C410.369 503.446 409.923 503.364 409.557 503.126C409.191 502.889 408.934 502.516 408.843 502.089L408.695 501.396C408.616 501.025 408.668 500.638 408.841 500.3C409.015 499.963 409.299 499.696 409.647 499.544C406.574 498.539 404.549 497.498 404.584 496.5Z" fill="#2F2E41"/>
<path d="M454.474 72.5652C438.457 72.5652 425.474 59.5815 425.474 43.5652C425.474 27.549 438.457 14.5652 454.474 14.5652C470.49 14.5652 483.474 27.549 483.474 43.5652C483.474 59.5815 470.49 72.5652 454.474 72.5652Z" fill="#FFB8B8"/>
<path d="M428.474 40.5652C428.474 40.5652 412.474 60.5652 404.474 59.5652L439.474 86.5652C439.474 86.5652 443.474 69.5652 448.474 67.5652C453.474 65.5652 428.474 40.5652 428.474 40.5652Z" fill="#FFB8B8"/>
<path d="M365.974 189.065C365.974 189.065 365.976 78.7189 384.487 69.2134C402.987 59.7134 415.224 54.2913 415.224 54.2913C415.497 57.912 416.526 61.4353 418.245 64.6335C419.964 67.8317 422.335 70.6337 425.204 72.8584C431.338 77.5941 437.45 81.5209 440.864 81.5335L440.974 81.0652L441.39 79.8764L451.474 95.5652C451.474 95.5652 460.474 97.5652 463.474 103.565C465.097 106.811 457.443 139.488 461.974 169.065C465.817 194.159 482.015 216.811 482.474 219.565C483.25 224.221 463.563 212.023 454.698 206.321C454.567 206.468 454.474 206.565 454.474 206.565C454.474 206.565 459.474 208.565 449.474 205.565C443.807 203.865 435.896 203.771 430.101 204.008C430.108 205.746 430.067 207.126 429.974 208.065C428.974 218.065 378.974 232.065 371.974 229.065C364.974 226.065 365.974 189.065 365.974 189.065Z" fill="#2F2E41"/>
<path d="M400.974 227.065C400.974 227.065 430.974 254.065 410.974 259.065C390.974 264.065 382.974 231.065 382.974 231.065L400.974 227.065Z" fill="#FFB8B8"/>
<path d="M435.974 297.065C435.974 297.065 421.974 284.065 413.974 291.065C405.974 298.065 400.974 303.065 400.974 303.065C400.974 303.065 423.974 289.065 435.974 297.065Z" fill="#6C63FF"/>
<path d="M432.337 452.614C432.337 452.614 424.446 445.286 419.937 449.232C415.428 453.177 412.61 455.995 412.61 455.995C412.61 455.995 425.574 448.105 432.337 452.614Z" fill="#2F2E41"/>
<path d="M520.74 384.459C520.74 384.459 515.324 375.152 509.861 377.615C504.399 380.077 500.883 381.953 500.883 381.953C500.883 381.953 515.582 378.177 520.74 384.459Z" fill="#2F2E41"/>
<path d="M373.53 82.9341C383.443 63.0082 413.604 73.8757 408.703 95.5848C408.63 95.9085 408.554 96.2353 408.474 96.5653C403.308 117.115 394.867 136.699 383.474 154.565L394.474 203.565L406.474 228.565L381.474 234.565L350.474 159.565C350.474 159.565 359.024 112.092 373.53 82.9341Z" fill="#2F2E41"/>
<path opacity="0.2" d="M387.974 156.065L406.974 228.065L390.974 194.065L387.974 156.065Z" fill="black"/>
<path d="M436.261 9.76134C436.261 9.76134 452.291 -7.11515 468.426 3.51302C484.561 14.1412 492.216 24.4654 490.634 31.654C489.052 38.8426 484.37 48.8416 484.37 48.8416C484.37 48.8416 487.279 33.9489 473.919 32.8468C460.559 31.7447 442.1 22.9031 442.1 22.9031L429.614 49.567C429.614 49.567 427.849 43.3881 422.956 45.1603C418.062 46.9326 421.855 11.7381 436.261 9.76134Z" fill="#2F2E41"/>
<path d="M538.974 391.065C538.975 393.598 539.185 396.127 539.604 398.625V398.635C540.752 405.356 543.412 411.727 547.383 417.269C551.354 422.811 556.531 427.379 562.526 430.628C568.52 433.876 575.174 435.72 581.985 436.021C588.796 436.322 595.586 435.072 601.844 432.365H601.854C603.705 431.566 605.499 430.641 607.224 429.595C612.568 426.369 617.183 422.067 620.778 416.963C624.372 411.859 626.867 406.064 628.104 399.945C628.684 397.021 628.975 394.047 628.974 391.065C628.974 389.705 628.914 388.355 628.794 387.025V387.015C627.756 375.532 622.35 364.886 613.691 357.272C605.033 349.659 593.782 345.659 582.26 346.099C570.739 346.539 559.826 351.385 551.773 359.637C543.72 367.889 539.142 378.917 538.984 390.445V390.455C538.974 390.665 538.974 390.855 538.974 391.065Z" fill="#6C63FF"/>
<path d="M572.897 376.035H593.051L603.128 358.585L596.293 346.737L595.894 346.63C587.24 344.317 578.101 344.573 569.591 347.365L569.229 347.485L562.819 358.585L572.897 376.035ZM591.897 374.035H574.051L565.128 358.585L570.578 349.147C578.486 346.64 586.939 346.4 594.976 348.456L600.819 358.585L591.897 374.035Z" fill="white"/>
<path d="M573.897 412.036H594.051L604.128 394.582L594.051 377.128H573.896L563.819 394.582L573.897 412.036ZM592.897 410.036H575.051L566.128 394.582L575.051 379.128H592.896L601.819 394.582L592.897 410.036Z" fill="white"/>
<path d="M583.974 437.065C590.259 437.077 596.479 435.789 602.242 433.282L603.27 432.836L593.051 415.125H572.896L563.108 432.08L564.081 432.547C570.285 435.537 577.086 437.082 583.974 437.065V437.065ZM600.411 431.882C594.912 434.094 589.024 435.174 583.098 435.057C577.173 434.94 571.332 433.628 565.925 431.2L574.051 417.125H591.896L600.411 431.882Z" fill="white"/>
<path d="M539.897 394.035H560.051L570.128 376.585L560.051 359.125H550.874L550.578 359.436C542.62 367.809 538.121 378.881 537.983 390.432V390.722L539.897 394.035ZM558.897 392.035H541.051L539.987 390.194C540.18 379.386 544.365 369.032 551.736 361.125H558.896L567.819 376.585L558.897 392.035Z" fill="white"/>
<path d="M560.329 430.547L570.128 413.585L560.051 396.125H539.897L538.604 398.355L538.618 398.803C539.71 405.171 542.129 411.238 545.718 416.611C549.307 421.984 553.985 426.543 559.449 429.991L560.329 430.547ZM567.819 413.585L559.644 427.733C554.692 424.443 550.456 420.185 547.192 415.215C543.927 410.245 541.702 404.666 540.649 398.814L541.05 398.125H558.896L567.819 413.585Z" fill="white"/>
<path d="M606.868 430.978L607.741 430.451C613.202 427.15 617.918 422.752 621.592 417.535C625.266 412.318 627.817 406.395 629.084 400.141L629.158 399.771L627.051 396.125H606.896L596.819 413.585L606.868 430.978ZM627.047 400.116C625.833 405.858 623.485 411.299 620.141 416.122C616.797 420.944 612.524 425.051 607.573 428.202L599.128 413.585L608.051 398.125H625.896L627.047 400.116Z" fill="white"/>
<path d="M606.896 392.035H627.05L629.793 387.294V387.025C628.806 375.693 623.642 365.131 615.305 357.392L615.017 357.125H606.896L596.819 374.585L606.896 392.035ZM625.897 390.035H608.051L599.128 374.585L608.051 359.125H614.228C621.942 366.406 626.754 376.239 627.769 386.799L625.897 390.035Z" fill="white"/>
</g>
<defs>
<clipPath id="clip0_53_2">
<rect width="856.974" height="510.427" fill="white" transform="matrix(-1 0 0 1 856.974 0)"/>
</clipPath>
</defs>
</svg>
