<svg width="899" height="425" viewBox="0 0 899 425" fill="none" xmlns="http://www.w3.org/2000/svg">
<g clip-path="url(#clip0_18_45)">
<path d="M298.033 167.206C298.033 171.053 291.582 172.335 286.206 173.617C261.502 177 280.82 205.5 288.359 184.5C294.81 185.782 291.3 183.348 296.817 182.97C302.334 182.592 319.537 182.593 317.386 178.746C315.236 174.899 303.409 176.182 306.635 173.617C309.86 171.053 318.567 169.904 313.676 167.272L305.022 164L298.033 167.206Z" fill="#29FFCC"/>
<g clip-path="url(#clip1_18_45)">
<path d="M326.286 177C325.68 177 325.098 176.817 324.669 176.492C324.241 176.167 324 175.726 324 175.267V156.2C324 155.74 324.241 155.299 324.669 154.974C325.098 154.649 325.68 154.467 326.286 154.467H328.571V153.6C328.571 152.91 328.933 152.249 329.576 151.762C330.219 151.274 331.091 151 332 151H348C348.909 151 349.781 151.274 350.424 151.762C351.067 152.249 351.429 152.91 351.429 153.6V154.553C352.719 154.753 353.879 155.285 354.712 156.059C355.545 156.833 356 157.801 356 158.8V172.667C356 173.816 355.398 174.918 354.326 175.731C353.255 176.543 351.801 177 350.286 177H326.286ZM349.143 154.467V153.6C349.143 153.37 349.022 153.15 348.808 152.987C348.594 152.825 348.303 152.733 348 152.733H332C331.697 152.733 331.406 152.825 331.192 152.987C330.978 153.15 330.857 153.37 330.857 153.6V154.467H349.143Z" fill="#F6F6F6"/>
</g>
<path d="M810.924 175.325H283.476C281.237 175.325 279.089 176.295 277.505 178.02C275.922 179.746 275.032 182.087 275.032 184.527C275.032 186.968 275.922 189.309 277.505 191.035C279.089 192.76 281.237 193.73 283.476 193.73H298.416V413.88C298.416 416.321 299.306 418.661 300.89 420.387C302.473 422.113 304.621 423.082 306.861 423.082C309.1 423.082 311.248 422.113 312.832 420.387C314.416 418.661 315.305 416.321 315.305 413.88L315.434 193.73H738.764L777.797 413.88C777.797 416.321 778.686 418.661 780.27 420.387C781.853 422.113 784.001 423.082 786.241 423.082C788.481 423.082 790.628 422.113 792.212 420.387C793.796 418.661 794.685 416.321 794.685 413.88L797.142 193.73H810.924C813.164 193.73 815.312 192.76 816.896 191.035C818.479 189.309 819.369 186.968 819.369 184.527C819.369 182.087 818.479 179.746 816.896 178.02C815.312 176.295 813.164 175.325 810.924 175.325Z" fill="#9D9D9D"/>
<path d="M462.236 313.222V279.244C462.236 277.742 461.688 276.302 460.714 275.24C459.739 274.178 458.417 273.581 457.039 273.581H338.818C337.44 273.581 336.118 274.178 335.144 275.24C334.169 276.302 333.621 277.742 333.621 279.244V313.222H462.236Z" fill="#CCCCCC"/>
<path d="M462.236 325.964H333.621V369.852H462.236V325.964Z" fill="#CCCCCC"/>
<path d="M333.621 382.594V416.572C333.621 418.074 334.169 419.515 335.144 420.577C336.118 421.639 337.44 422.235 338.818 422.235H457.039C458.417 422.235 459.739 421.639 460.714 420.577C461.688 419.515 462.236 418.074 462.236 416.572V382.594H333.621Z" fill="#CCCCCC"/>
<path d="M397.279 299.065C399.431 299.065 401.176 297.163 401.176 294.817C401.176 292.472 399.431 290.57 397.279 290.57C395.127 290.57 393.382 292.472 393.382 294.817C393.382 297.163 395.127 299.065 397.279 299.065Z" fill="white"/>
<path d="M397.279 355.695C399.431 355.695 401.176 353.793 401.176 351.448C401.176 349.102 399.431 347.2 397.279 347.2C395.127 347.2 393.382 349.102 393.382 351.448C393.382 353.793 395.127 355.695 397.279 355.695Z" fill="white"/>
<path d="M397.488 411.126C399.64 411.126 401.385 409.224 401.385 406.879C401.385 404.533 399.64 402.631 397.488 402.631C395.335 402.631 393.59 404.533 393.59 406.879C393.59 409.224 395.335 411.126 397.488 411.126Z" fill="white"/>
<path d="M447.654 234.839V273.809H358.063C353.323 273.985 348.713 272.103 345.246 268.576C341.779 265.05 339.738 260.167 339.573 255.002C339.408 249.837 341.132 244.811 344.365 241.03C347.599 237.25 352.078 235.023 356.818 234.839C357.233 234.823 357.648 234.823 358.063 234.839H447.654Z" fill="#F2F2F2"/>
<path d="M449.855 273.509C449.855 273.906 449.71 274.288 449.452 274.569C449.194 274.85 448.844 275.008 448.479 275.008H356.467C351.471 275.009 346.679 272.848 343.145 269C339.61 265.151 337.623 259.931 337.62 254.486C337.617 249.041 339.598 243.818 343.128 239.965C346.659 236.112 351.448 233.945 356.445 233.94H448.479C448.66 233.939 448.839 233.978 449.007 234.053C449.174 234.128 449.326 234.238 449.454 234.377C449.582 234.517 449.684 234.682 449.753 234.864C449.823 235.046 449.858 235.241 449.858 235.439C449.858 235.636 449.823 235.831 449.753 236.013C449.684 236.195 449.582 236.361 449.454 236.5C449.326 236.639 449.174 236.749 449.007 236.824C448.839 236.9 448.66 236.938 448.479 236.937H356.467C352.203 236.944 348.115 238.794 345.102 242.082C342.089 245.37 340.396 249.827 340.396 254.474C340.396 259.121 342.089 263.578 345.102 266.866C348.115 270.154 352.203 272.004 356.467 272.01H448.479C448.844 272.01 449.194 272.168 449.452 272.449C449.71 272.73 449.855 273.112 449.855 273.509V273.509Z" fill="#3F3D56"/>
<path d="M447.654 243.832H351.378C351.306 243.832 351.236 243.801 351.184 243.746C351.132 243.69 351.102 243.614 351.102 243.535C351.101 243.456 351.129 243.379 351.18 243.323C351.231 243.266 351.301 243.234 351.373 243.233H447.654C447.727 243.233 447.796 243.265 447.847 243.321C447.898 243.378 447.926 243.453 447.926 243.532C447.926 243.611 447.898 243.687 447.847 243.743C447.796 243.799 447.727 243.831 447.654 243.832H447.654Z" fill="#CCCCCC"/>
<path d="M447.654 251.027H351.378C351.306 251.027 351.236 250.996 351.184 250.94C351.132 250.885 351.102 250.809 351.102 250.73C351.101 250.65 351.129 250.574 351.18 250.517C351.231 250.461 351.301 250.428 351.373 250.427H447.654C447.727 250.428 447.796 250.46 447.847 250.516C447.898 250.572 447.926 250.648 447.926 250.727C447.926 250.806 447.898 250.882 447.847 250.938C447.796 250.994 447.727 251.026 447.654 251.027H447.654Z" fill="#CCCCCC"/>
<path d="M447.654 258.221H351.378C351.306 258.221 351.236 258.19 351.184 258.135C351.132 258.079 351.102 258.003 351.102 257.924C351.101 257.845 351.129 257.768 351.18 257.712C351.231 257.655 351.301 257.622 351.373 257.621H447.654C447.727 257.622 447.796 257.654 447.847 257.71C447.898 257.766 447.926 257.842 447.926 257.921C447.926 258 447.898 258.076 447.847 258.132C447.796 258.188 447.727 258.22 447.654 258.221H447.654Z" fill="#CCCCCC"/>
<path d="M447.654 265.415H351.378C351.306 265.416 351.236 265.385 351.184 265.329C351.132 265.273 351.102 265.198 351.102 265.118C351.101 265.039 351.129 264.963 351.18 264.906C351.231 264.849 351.301 264.817 351.373 264.816H447.654C447.727 264.817 447.796 264.848 447.847 264.905C447.898 264.961 447.926 265.037 447.926 265.116C447.926 265.194 447.898 265.27 447.847 265.326C447.796 265.383 447.727 265.414 447.654 265.415H447.654Z" fill="#CCCCCC"/>
<path d="M419.012 221.004H378.193C377.806 221.004 377.424 221.1 377.076 221.287L366.774 226.908C366.435 227.065 366.146 227.327 365.943 227.662C365.739 227.997 365.631 228.389 365.631 228.791C365.631 229.192 365.739 229.585 365.943 229.919C366.146 230.254 366.435 230.516 366.774 230.673L377.076 236.294C377.424 236.481 377.806 236.578 378.193 236.577H419.012C419.575 236.613 420.127 236.405 420.55 236C420.974 235.594 421.233 235.024 421.273 234.411V223.17C421.233 222.557 420.974 221.987 420.55 221.581C420.127 221.176 419.575 220.968 419.012 221.004V221.004Z" fill="#3F3D56"/>
<path d="M431.623 223.17V234.411C431.583 235.024 431.323 235.594 430.9 236C430.477 236.405 429.924 236.613 429.362 236.577H421.23V221.004H429.362C429.924 220.968 430.477 221.176 430.9 221.581C431.323 221.987 431.583 222.558 431.623 223.17V223.17Z" fill="#33D2AC"/>
<path d="M573.402 174.44L569.092 172.463L566.136 148.918H526.765L523.56 172.367L519.704 174.467C519.52 174.568 519.372 174.734 519.284 174.937C519.197 175.141 519.175 175.37 519.223 175.589C519.27 175.808 519.384 176.003 519.546 176.142C519.707 176.282 519.908 176.358 520.114 176.358H573.047C573.258 176.358 573.463 176.278 573.627 176.132C573.79 175.986 573.903 175.783 573.944 175.557C573.986 175.332 573.955 175.097 573.856 174.893C573.757 174.69 573.597 174.53 573.402 174.44V174.44Z" fill="#E6E6E6"/>
<path d="M643.367 152.051H449.965C448.951 152.048 447.978 151.607 447.261 150.824C446.545 150.042 446.142 148.981 446.142 147.875V118.155H647.19V147.875C647.19 148.981 646.788 150.042 646.071 150.824C645.355 151.607 644.382 152.048 643.367 152.051V152.051Z" fill="#CCCCCC"/>
<path d="M647.393 132.201H445.966V5.03361C445.967 3.69906 446.454 2.41961 447.32 1.47595C448.186 0.5323 449.36 0.00149328 450.585 0H642.774C643.998 0.00149325 645.172 0.532301 646.038 1.47595C646.904 2.41961 647.391 3.69905 647.393 5.03361L647.393 132.201Z" fill="#3F3D56"/>
<path d="M635.362 122.971H457.996C457.052 122.97 456.147 122.561 455.479 121.834C454.812 121.106 454.436 120.12 454.435 119.091V13.1104C454.436 12.0815 454.812 11.0951 455.479 10.3676C456.147 9.64004 457.052 9.2308 457.996 9.22961H635.362C636.306 9.2308 637.212 9.64004 637.879 10.3676C638.547 11.0951 638.922 12.0815 638.923 13.1104V119.091C638.922 120.12 638.547 121.106 637.879 121.834C637.212 122.561 636.306 122.97 635.362 122.971Z" fill="#171717"/>
<path d="M588.647 160.367C589.792 159.214 591.155 158.349 592.64 157.832C594.125 157.316 595.696 157.161 597.242 157.377C598.788 157.594 600.272 158.178 601.589 159.087C602.906 159.996 604.024 161.209 604.864 162.64L628.855 157.992L635.002 173.191L601.038 179.236C598.739 180.615 596.055 181.027 593.496 180.393C590.936 179.76 588.679 178.125 587.151 175.799C585.624 173.473 584.933 170.618 585.208 167.773C585.484 164.929 586.707 162.294 588.647 160.367V160.367Z" fill="#FFB6B6"/>
<path d="M610.859 179.773L635.869 179.434L639.035 179.387L689.921 178.688C689.921 178.688 703.74 164.322 715.772 149.531L714.086 136.237C712.441 123.191 706.502 111.24 697.375 102.61C680.142 115.159 670.148 139.998 670.148 139.998L638.597 148.222L635.44 149.044L615.836 154.149L610.859 179.773Z" fill="#33D2AC"/>
<path d="M738.893 261.48H692.206C692.206 263.66 641.172 265.43 641.172 265.43C640.046 266.354 639.02 267.413 638.114 268.589C635.389 272.13 633.9 276.606 633.91 281.227V284.386C633.911 289.623 635.821 294.644 639.219 298.347C642.616 302.049 647.224 304.13 652.029 304.132H738.893C743.697 304.128 748.303 302.046 751.7 298.344C755.098 294.642 757.008 289.622 757.012 284.386V281.227C757.005 275.992 755.094 270.974 751.698 267.272C748.301 263.571 743.696 261.488 738.893 261.48V261.48Z" fill="#E4E4E4"/>
<path d="M704.943 303.348H686.098V421.883H704.943V303.348Z" fill="#E4E4E4"/>
<path d="M632.464 421.162C632.464 423.38 661.02 422.02 696.245 422.02C731.47 422.02 760.026 423.38 760.026 421.162C760.026 418.943 731.47 401.347 696.245 401.347C661.02 401.347 632.464 418.943 632.464 421.162Z" fill="#E4E4E4"/>
<path d="M619.806 407.618L605.781 407.617L599.109 348.665L619.807 348.666L619.806 407.618Z" fill="#FFB6B6"/>
<path d="M623.382 422.433L578.16 422.431V421.808C578.161 416.72 580.015 411.842 583.316 408.245C586.617 404.647 591.094 402.626 595.762 402.626H595.763L623.383 402.627L623.382 422.433Z" fill="#2F2E41"/>
<path d="M578.354 407.618L564.329 407.617L557.658 348.665L578.356 348.666L578.354 407.618Z" fill="#FFB6B6"/>
<path d="M581.931 422.433L536.709 422.431V421.808C536.709 416.72 538.564 411.842 541.865 408.245C545.166 404.647 549.642 402.626 554.311 402.626H554.312L581.932 402.627L581.931 422.433Z" fill="#2F2E41"/>
<path d="M703.985 68.2264C717.452 68.2264 728.37 56.3287 728.37 41.6522C728.37 26.9756 717.452 15.0779 703.985 15.0779C690.517 15.0779 679.599 26.9756 679.599 41.6522C679.599 56.3287 690.517 68.2264 703.985 68.2264Z" fill="#FFB6B6"/>
<path d="M743.452 223.728C743.452 223.728 751.634 270.877 720.503 276.881C689.371 282.885 644.433 287.105 644.433 287.105L624.253 389.711L597.141 387.074C597.141 387.074 600.747 263.559 609.614 253.895C618.481 244.232 674.526 215.298 674.526 215.298L743.452 223.728Z" fill="#2F2E41"/>
<path d="M682.651 203.968L669.035 218.853C669.035 218.853 570.725 236.11 566.933 260.854C561.207 298.213 554.444 379.452 554.444 379.452L584.001 377.036L595.592 284.689L642.885 272.966L696.691 241.011L682.651 203.968Z" fill="#2F2E41"/>
<path d="M727.45 25.7894C725.043 20.84 721.984 10.9758 717.126 9.1464C714.428 8.17143 711.639 7.52402 708.81 7.21594L700.552 10.6774L705.047 6.86789C704.172 6.81108 703.297 6.76463 702.423 6.72856L696.851 9.06399L699.702 6.64775C694.507 6.58964 689.145 7.17827 685.12 10.6245C681.688 13.5624 678.289 24.6917 677.739 29.4092C677.151 33.9222 677.357 38.5158 678.345 42.945L679.756 44.4072C680.25 43.1738 680.621 41.8864 680.863 40.5669C681.369 38.1015 682.341 35.778 683.716 33.7445C685.091 31.711 686.841 30.012 688.852 28.7559L688.929 28.7087C691.295 27.2572 694.167 27.3241 696.881 27.4305L709.771 27.936C712.872 28.0576 716.212 28.2715 718.629 30.3914C720.166 31.9552 721.374 33.8626 722.171 35.9828C723.372 38.6253 725.72 48.5918 725.72 48.5918C725.72 48.5918 727.048 46.7105 727.685 48.1108C728.706 44.4574 729.327 40.6852 729.534 36.8729C729.737 33.0437 729.019 29.223 727.45 25.7894V25.7894Z" fill="#2F2E41"/>
<path d="M812.739 53.3223C811.183 53.4339 809.669 53.9159 808.303 54.7342C806.937 55.5525 805.752 56.6873 804.832 58.0586C803.912 59.4299 803.279 61.0044 802.977 62.6712C802.676 64.338 802.714 66.0565 803.088 67.7057L783.478 83.469L789.362 98.7916L816.767 76.107C819.268 75.2386 821.389 73.4007 822.73 70.9416C824.07 68.4825 824.536 65.573 824.039 62.7645C823.543 59.956 822.118 57.4436 820.035 55.7033C817.953 53.9631 815.356 53.1159 812.739 53.3223V53.3223Z" fill="#FFB6B6"/>
<path d="M809.582 85.5032L760.424 145C760.424 145 736.915 136.799 718.734 127.908L710.566 100.569C708.67 94.2271 707.86 87.5587 708.179 80.8973C733.383 73.5885 762.698 100.784 762.698 100.784L799.495 69.3727L809.582 85.5032Z" fill="#33D2AC"/>
<path d="M694.876 228.123C686.106 224.821 677.037 221.408 667.255 220.126L666.835 220.071L666.951 219.627C677.077 180.882 674.55 156.096 669.587 118.866C668.532 110.835 669.888 102.648 673.453 95.5259C677.018 88.404 682.601 82.7295 689.368 79.3493L689.428 79.3197L717.366 77.385L717.43 77.3808L737.749 83.8932C740.672 84.837 743.23 86.7991 745.032 89.4789C746.834 92.1587 747.78 95.4084 747.725 98.73C747.504 110.974 747.971 124.644 748.466 139.117C749.574 171.585 750.721 205.159 744.215 226.942L744.181 227.056L744.094 227.13C738.113 232.439 730.62 235.307 722.906 235.241C713.786 235.241 704.479 231.738 694.876 228.123Z" fill="#33D2AC"/>
<path d="M808.733 423H295.698C295.501 423 295.312 422.947 295.173 422.854C295.033 422.76 294.955 422.633 294.955 422.5C294.955 422.367 295.033 422.24 295.173 422.146C295.312 422.053 295.501 422 295.698 422H808.733C808.931 422 809.12 422.053 809.259 422.146C809.399 422.24 809.477 422.367 809.477 422.5C809.477 422.633 809.399 422.76 809.259 422.854C809.12 422.947 808.931 423 808.733 423Z" fill="#CCCCCC"/>
</g>
<defs>
<clipPath id="clip0_18_45">
<rect width="899" height="425" fill="white"/>
</clipPath>
<clipPath id="clip1_18_45">
<rect width="27" height="36" fill="white" transform="translate(322 176) rotate(-90)"/>
</clipPath>
</defs>
</svg>
