<svg width="1920" height="152" viewBox="0 0 1920 152" fill="none" xmlns="http://www.w3.org/2000/svg">
<path d="M1920 152H0V13.8086C0 13.8086 53.0526 -0.124936 119.368 13.8086C185.684 27.7422 238.737 13.8086 238.737 13.8086C238.737 13.8086 319.579 -12.0817 435.789 13.8086C552 39.699 637.895 13.8086 637.895 13.8086C637.895 13.8086 727.579 -17.2604 835.579 13.8086C943.579 44.8776 958.737 40.0871 958.737 40.0871C958.737 40.0871 978.947 44.4786 1084.42 13.8083C1189.89 -16.8621 1282.11 13.8083 1282.11 13.8083C1282.11 13.8083 1368 39.6986 1484.21 13.8083C1600.42 -12.0821 1681.26 13.8083 1681.26 13.8083C1681.26 13.8083 1734.32 27.7418 1800.63 13.8083C1866.95 -0.125304 1920 13.8083 1920 13.8083V152Z" fill="#FF0000"/>
</svg>
